<svg width="27" height="26" viewBox="0 0 27 26" fill="none" xmlns="http://www.w3.org/2000/svg">
<path fill-rule="evenodd" clip-rule="evenodd" d="M18.9422 0.333294H7.86379C2.64512 0.333294 0.736328 2.24209 0.736328 7.46079V18.5393C0.736328 23.7579 2.64512 25.6666 7.86379 25.6666H18.9387C24.1574 25.6666 26.0697 23.7579 26.0697 18.5393V7.46079C26.0697 2.24209 24.1609 0.333294 18.9422 0.333294Z" fill="#C91C2E"/>
<path d="M11.7885 15.0255H12.8045L12.2949 13.8404L11.7885 15.0255ZM11.5384 15.6229L11.2371 16.3125H10.5509L12.0101 13.0021H12.6029L14.0563 16.3125H13.3517L13.0541 15.6229H11.5384ZM22.5792 16.3102H23.2424V13.0021H22.5792V16.3102ZM19.94 14.8887H21.1621V14.2859H19.94V13.6078H21.7141V13.0042H19.2771V16.3121H21.7781V15.7088H19.94V14.8887ZM17.3051 15.2796L16.5531 13.002H16.0048L15.2528 15.2796L14.5211 13.0036H13.8059L14.9603 16.314H15.5165L16.2696 14.1395L17.0224 16.314H17.5837L18.7352 13.0036H18.0384L17.3051 15.2796ZM9.53867 14.8979C9.53867 15.4364 9.27121 15.7241 8.78561 15.7241C8.29735 15.7241 8.02854 15.4283 8.02854 14.875V13.004H7.35654V14.8979C7.35654 15.8296 7.87414 16.3638 8.77654 16.3638C9.68774 16.3638 10.2104 15.8194 10.2104 14.8705V13.002H9.53867V14.8979ZM5.75307 13.0021H6.4248V16.3142H5.75307V14.9692H4.23547V16.3142H3.56348V13.0021H4.23547V14.3383H5.75307V13.0021Z" fill="white"/>
<path d="M13.4033 8.7851C11.0783 8.7851 9.18652 6.89334 9.18652 4.56827H9.78225C9.78225 6.56491 11.4065 8.18939 13.4033 8.18939C15.4001 8.18939 17.0244 6.56491 17.0244 4.56827H17.6201C17.6201 6.89334 15.7284 8.7851 13.4033 8.7851Z" fill="white"/>
</svg>
