<svg width="26" height="26" viewBox="0 0 26 26" fill="none" xmlns="http://www.w3.org/2000/svg">
<path fill-rule="evenodd" clip-rule="evenodd" d="M18.4422 0.333416H7.36379C2.14512 0.333416 0.236328 2.24222 0.236328 7.46091V18.5395C0.236328 23.758 2.14512 25.6667 7.36379 25.6667H18.4387C23.6574 25.6667 25.5697 23.758 25.5697 18.5395V7.46091C25.5697 2.24222 23.6609 0.333416 18.4422 0.333416Z" fill="#C91C2E"/>
<path d="M11.2885 15.0255H12.3045L11.7949 13.8405L11.2885 15.0255ZM11.0384 15.6229L10.7371 16.3125H10.0509L11.5101 13.0022H12.1029L13.5563 16.3125H12.8517L12.5541 15.6229H11.0384ZM22.0792 16.3102H22.7424V13.0022H22.0792V16.3102ZM19.44 14.8888H20.6621V14.286H19.44V13.6078H21.2141V13.0043H18.7771V16.3122H21.2781V15.7089H19.44V14.8888ZM16.8051 15.2797L16.0531 13.0021H15.5048L14.7528 15.2797L14.0211 13.0037H13.3059L14.4603 16.3141H15.0165L15.7696 14.1396L16.5224 16.3141H17.0837L18.2352 13.0037H17.5384L16.8051 15.2797ZM9.03867 14.8979C9.03867 15.4365 8.77121 15.7242 8.28561 15.7242C7.79735 15.7242 7.52854 15.4283 7.52854 14.875V13.0041H6.85654V14.8979C6.85654 15.8297 7.37414 16.3639 8.27654 16.3639C9.18774 16.3639 9.7104 15.8195 9.7104 14.8706V13.0021H9.03867V14.8979ZM5.25307 13.0022H5.9248V16.3143H5.25307V14.9693H3.73547V16.3143H3.06348V13.0022H3.73547V14.3383H5.25307V13.0022Z" fill="white"/>
<path d="M12.9033 8.78516C10.5783 8.78516 8.68652 6.8934 8.68652 4.56833H9.28225C9.28225 6.56497 10.9065 8.18945 12.9033 8.18945C14.9001 8.18945 16.5244 6.56497 16.5244 4.56833H17.1201C17.1201 6.8934 15.2284 8.78516 12.9033 8.78516Z" fill="white"/>
</svg>
