<svg width="24" height="24" viewBox="0 0 24 24" fill="none" xmlns="http://www.w3.org/2000/svg">
<path d="M10.3946 0.107978C11.5589 -0.0546317 12.7366 -0.0275301 13.8873 0.14863C13.9144 0.162181 13.9821 0.175732 14.0092 0.189283C14.9839 1.99154 15.945 3.80734 16.9197 5.6096C18.8556 5.94837 20.7779 6.30069 22.7138 6.63946H22.7273C23.2823 7.77773 23.6614 8.9973 23.8509 10.244C22.5648 11.721 21.1976 13.1167 19.8709 14.5802C20.0469 15.976 20.2093 17.3581 20.3853 18.7539C20.4395 19.2959 20.5478 19.8515 20.5342 20.4071V20.4342C19.6272 21.3285 18.6119 22.0874 17.4883 22.6836C15.7013 21.8163 13.8873 20.9762 12.0868 20.1089C10.2593 20.9762 8.4317 21.857 6.61768 22.7378C5.56175 22.1958 4.57352 21.5047 3.70712 20.6781C3.95079 18.6455 4.18093 16.6128 4.4246 14.5802C3.00316 13.0896 1.62234 11.5719 0.173828 10.122C0.349816 8.88889 0.76948 7.70997 1.29744 6.59881L1.21622 6.80207C3.24684 6.4091 5.26393 6.01612 7.29455 5.62315C7.457 5.62315 7.51115 5.43344 7.57884 5.32503C8.51293 3.54988 9.47409 1.84248 10.3946 0.107978Z" fill="white"/>
<path d="M1.30974 6.55803C3.01546 3.08902 6.54875 0.541474 10.3934 0.107849C9.47285 1.84235 8.51169 3.54975 7.59114 5.28425C7.50991 5.39266 7.4693 5.58237 7.30685 5.58237C5.27623 5.97534 3.25914 6.36831 1.22852 6.76129L1.30974 6.55803Z" fill="#D6161B"/>
<path d="M13.8867 0.148682C17.6502 0.690713 21.0751 3.21116 22.7132 6.63951C20.7773 6.31429 18.855 5.96197 16.9191 5.60965C15.9444 3.8074 14.9833 1.99159 14.0086 0.189334C13.9815 0.175783 13.9138 0.148682 13.8867 0.148682Z" fill="#D6161B"/>
<path d="M8.64755 7.50659C10.8542 7.50659 13.0743 7.50659 15.2809 7.50659C15.9578 9.60697 16.6347 11.7073 17.3251 13.7942C15.5517 15.1221 13.7377 16.4095 11.9507 17.7239C10.1638 16.423 8.3768 15.1221 6.58984 13.8213C7.26672 11.7209 7.95714 9.60697 8.64755 7.50659Z" fill="#D6161B"/>
<path d="M0.160263 10.0678L0.18734 10.0949C1.63585 11.5448 3.01668 13.0761 4.43812 14.5531C4.20798 16.5857 3.96431 18.6184 3.72063 20.651C0.864216 18.0221 -0.489538 13.8891 0.160263 10.0678Z" fill="#D6161B"/>
<path d="M19.8828 14.5667C21.196 13.1168 22.5632 11.7075 23.8628 10.2305C24.4314 13.8756 23.1995 17.7918 20.5462 20.38C20.5597 19.8244 20.4649 19.2824 20.3972 18.7268C20.2212 17.3446 20.0453 15.9625 19.8828 14.5667Z" fill="#D6161B"/>
<path d="M6.63086 22.7108C8.45842 21.83 10.2724 20.9492 12.1 20.0819C13.9005 20.9492 15.701 21.7758 17.5014 22.6566C14.1712 24.4181 9.97461 24.4588 6.63086 22.7108Z" fill="#D6161B"/>
</svg>
