<svg width="22" height="22" viewBox="0 0 22 22" fill="none" xmlns="http://www.w3.org/2000/svg">
<path fill-rule="evenodd" clip-rule="evenodd" d="M3.2998 18.7002C3.2998 18.4085 3.4157 18.1287 3.62199 17.9224C3.82828 17.7161 4.10807 17.6002 4.3998 17.6002H17.5998C17.8915 17.6002 18.1713 17.7161 18.3776 17.9224C18.5839 18.1287 18.6998 18.4085 18.6998 18.7002C18.6998 18.9919 18.5839 19.2717 18.3776 19.478C18.1713 19.6843 17.8915 19.8002 17.5998 19.8002H4.3998C4.10807 19.8002 3.82828 19.6843 3.62199 19.478C3.4157 19.2717 3.2998 18.9919 3.2998 18.7002ZM6.92211 10.2225C7.12839 10.0163 7.40812 9.90043 7.6998 9.90043C7.99149 9.90043 8.27122 10.0163 8.4775 10.2225L9.89981 11.6448V3.3002C9.89981 3.00846 10.0157 2.72867 10.222 2.52238C10.4283 2.31609 10.7081 2.2002 10.9998 2.2002C11.2915 2.2002 11.5713 2.31609 11.7776 2.52238C11.9839 2.72867 12.0998 3.00846 12.0998 3.3002V11.6448L13.5221 10.2225C13.6236 10.1174 13.745 10.0336 13.8792 9.97598C14.0134 9.91833 14.1577 9.88799 14.3038 9.88672C14.4498 9.88545 14.5947 9.91328 14.7299 9.96859C14.865 10.0239 14.9879 10.1056 15.0911 10.2089C15.1944 10.3121 15.2761 10.435 15.3314 10.5701C15.3867 10.7053 15.4145 10.8502 15.4133 10.9962C15.412 11.1423 15.3817 11.2866 15.324 11.4208C15.2664 11.555 15.1826 11.6764 15.0775 11.7779L11.7775 15.0779C11.5712 15.2841 11.2915 15.4 10.9998 15.4C10.7081 15.4 10.4284 15.2841 10.2221 15.0779L6.92211 11.7779C6.71589 11.5716 6.60004 11.2919 6.60004 11.0002C6.60004 10.7085 6.71589 10.4288 6.92211 10.2225Z" fill="white"/>
</svg>
