<svg width="22" height="22" viewBox="0 0 22 22" fill="none" xmlns="http://www.w3.org/2000/svg">
<g clip-path="url(#clip0_1377_3738)">
<path fill-rule="evenodd" clip-rule="evenodd" d="M17.2352 6.04778L17.1544 5.69203C17.1544 2.55494 14.5994 0 11.4542 0C8.30908 0 5.76222 2.54686 5.76222 5.68394L5.68137 6.03969H1L2.2613 17.7957C2.51194 20.1889 4.53326 22 6.93458 22H15.9739C18.3752 22 20.3965 20.1889 20.6472 17.7957L21.9085 6.03969H17.2352V6.04778ZM8.15546 6.04778L8.2444 5.69203C8.2444 3.92135 9.68357 2.48218 11.4542 2.48218C13.2249 2.48218 14.6641 3.92135 14.6641 5.69203L14.753 6.04778H8.15546Z" fill="white"/>
</g>
<defs>
<clipPath id="clip0_1377_3738">
<rect width="22" height="22" fill="white"/>
</clipPath>
</defs>
</svg>
