<svg width="25" height="24" viewBox="0 0 25 24" fill="none" xmlns="http://www.w3.org/2000/svg">
<path fill-rule="evenodd" clip-rule="evenodd" d="M1.59106 10.9911C1.59106 6.86636 1.59106 4.80401 2.64147 3.35825C2.98071 2.89132 3.39132 2.48071 3.85825 2.14147C5.30401 1.09106 7.36636 1.09106 11.4911 1.09106H13.5092C17.634 1.09106 19.6963 1.09106 21.1421 2.14147C21.609 2.48071 22.0196 2.89132 22.3588 3.35825C23.4092 4.80401 23.4092 6.86636 23.4092 10.9911V13.0092C23.4092 17.134 23.4092 19.1963 22.3588 20.6421C22.0196 21.109 21.609 21.5196 21.1421 21.8588C19.6963 22.9092 17.634 22.9092 13.5092 22.9092H11.4911C7.36636 22.9092 5.30401 22.9092 3.85825 21.8588C3.39132 21.5196 2.98071 21.109 2.64147 20.6421C1.59106 19.1963 1.59106 17.134 1.59106 13.0092V10.9911ZM12.5001 6.22452C9.31061 6.22452 6.72468 8.81045 6.72468 11.9999C6.72468 15.1894 9.31061 17.7753 12.5001 17.7753C15.6895 17.7753 18.2755 15.1894 18.2755 11.9999C18.2755 8.81045 15.6895 6.22452 12.5001 6.22452ZM12.5001 15.6095C10.5105 15.6095 8.89045 13.9895 8.89045 11.9999C8.89045 10.0088 10.5105 8.39029 12.5001 8.39029C14.4897 8.39029 16.1097 10.0088 16.1097 11.9999C16.1097 13.9895 14.4897 15.6095 12.5001 15.6095ZM19.4783 5.79174C19.4783 6.21677 19.1338 6.56132 18.7088 6.56132C18.2837 6.56132 17.9392 6.21677 17.9392 5.79174C17.9392 5.36672 18.2837 5.02217 18.7088 5.02217C19.1338 5.02217 19.4783 5.36672 19.4783 5.79174Z" fill="url(#paint0_linear_1439_10567)"/>
<defs>
<linearGradient id="paint0_linear_1439_10567" x1="-1.15583" y1="1.09107" x2="37.226" y2="15.5925" gradientUnits="userSpaceOnUse">
<stop stop-color="#49EBF5"/>
<stop offset="1" stop-color="#04DB19" stop-opacity="0.7"/>
</linearGradient>
</defs>
</svg>
