<svg width="20" height="20" viewBox="0 0 20 20" fill="none" xmlns="http://www.w3.org/2000/svg">
<path d="M19.9665 7.22428C19.9034 7.04161 19.7887 6.88117 19.6362 6.76241C19.4838 6.64365 19.3002 6.57166 19.1076 6.55519L13.4254 5.72632L10.8788 0.563343C10.797 0.394502 10.6694 0.252109 10.5104 0.152476C10.3515 0.052843 10.1676 0 9.98005 0C9.79245 0 9.60864 0.052843 9.44968 0.152476C9.29072 0.252109 9.16304 0.394502 9.08127 0.563343L6.53474 5.71633L0.85247 6.55519C0.667644 6.58146 0.493882 6.65901 0.350902 6.77904C0.207923 6.89907 0.101452 7.05678 0.0435705 7.23426C-0.00941243 7.4077 -0.014167 7.59229 0.0298169 7.76823C0.0738009 7.94417 0.164863 8.1048 0.293231 8.23291L4.41762 12.2275L3.41898 17.8997C3.38333 18.087 3.40199 18.2805 3.47277 18.4574C3.54356 18.6344 3.6635 18.7874 3.81843 18.8984C3.96944 19.0063 4.14756 19.0701 4.33278 19.0824C4.518 19.0948 4.703 19.0553 4.86701 18.9683L9.98005 16.3019L15.0731 18.9783C15.2133 19.0574 15.3716 19.0986 15.5325 19.0981C15.744 19.0989 15.9503 19.0324 16.1217 18.9084C16.2766 18.7974 16.3966 18.6444 16.4673 18.4674C16.5381 18.2905 16.5568 18.097 16.5211 17.9097L15.5225 12.2375L19.6469 8.24289C19.7911 8.12074 19.8976 7.96018 19.9542 7.77987C20.0108 7.59956 20.015 7.4069 19.9665 7.22428Z" fill="#D9D9D9"/>
</svg>
