<svg width="25" height="24" viewBox="0 0 25 24" fill="none" xmlns="http://www.w3.org/2000/svg">
<path fill-rule="evenodd" clip-rule="evenodd" d="M23.409 11.9999C23.409 18.0248 18.5248 22.909 12.4999 22.909C6.47499 22.909 1.59082 18.0248 1.59082 11.9999C1.59082 5.97499 6.47499 1.09082 12.4999 1.09082C18.5248 1.09082 23.409 5.97499 23.409 11.9999ZM12.9441 16.7845H12.0878C12.0878 16.7845 10.1986 16.8983 8.53497 15.1662C6.72061 13.277 5.11822 9.52807 5.11822 9.52807C5.11822 9.52807 5.02585 9.28227 5.12619 9.16345C5.23898 9.02985 5.54624 9.0213 5.54624 9.0213L7.59298 9.00788C7.59298 9.00788 7.78589 9.04016 7.92396 9.14148C8.03772 9.2251 8.10151 9.38145 8.10151 9.38145C8.10151 9.38145 8.43229 10.218 8.87042 10.9749C9.72548 12.4524 10.1237 12.7756 10.4141 12.6173C10.837 12.3865 10.7103 10.5286 10.7103 10.5286C10.7103 10.5286 10.718 9.85419 10.4973 9.55394C10.3264 9.32116 10.004 9.25329 9.86161 9.23424C9.74648 9.21887 9.93551 8.95148 10.1805 8.8315C10.5488 8.65104 11.1993 8.64073 11.9679 8.6487C12.5666 8.65473 12.7389 8.69207 12.973 8.74866C13.5163 8.87982 13.4993 9.3001 13.4628 10.2069C13.4518 10.4779 13.4392 10.7923 13.4392 11.1554C13.4392 11.2371 13.4368 11.3241 13.4344 11.4137C13.4217 11.8781 13.4071 12.4098 13.7128 12.6074C13.8695 12.7085 14.253 12.6226 15.2121 10.9939C15.6668 10.2221 16.0077 9.31455 16.0077 9.31455C16.0077 9.31455 16.0822 9.15275 16.1979 9.08333C16.3163 9.01255 16.4759 9.03433 16.4759 9.03433L18.6298 9.02091C18.6298 9.02091 19.277 8.94371 19.3818 9.23579C19.4917 9.54246 19.1399 10.2585 18.26 11.4313C17.4243 12.5451 17.0182 12.9545 17.0564 13.3171C17.0842 13.5814 17.3482 13.8209 17.8539 14.2903C18.9141 15.2744 19.1967 15.7912 19.2639 15.914C19.2693 15.9239 19.2733 15.9313 19.2762 15.9361C19.7507 16.7229 18.75 16.7845 18.75 16.7845L16.8371 16.8112C16.8371 16.8112 16.426 16.8927 15.885 16.521C15.602 16.3268 15.3254 16.0097 15.0619 15.7076C14.659 15.2457 14.2867 14.8189 13.9689 14.9196C13.4357 15.0888 13.4524 16.2377 13.4524 16.2377C13.4524 16.2377 13.4563 16.4831 13.3348 16.6138C13.2027 16.7561 12.9441 16.7845 12.9441 16.7845Z" fill="url(#paint0_linear_1439_10564)"/>
<defs>
<linearGradient id="paint0_linear_1439_10564" x1="-1.15607" y1="1.09082" x2="37.2258" y2="15.5923" gradientUnits="userSpaceOnUse">
<stop stop-color="#49EBF5"/>
<stop offset="1" stop-color="#04DB19" stop-opacity="0.7"/>
</linearGradient>
</defs>
</svg>
