<svg width="12" height="13" viewBox="0 0 12 13" fill="none" xmlns="http://www.w3.org/2000/svg">
<path d="M2.78212 1.01512L6 4.2838L9.21788 1.01512C9.88827 0.334151 10.8268 0.334151 11.4972 1.01512C12.1676 1.6961 12.1676 2.64946 11.4972 3.33043L8.27933 6.59911L11.4972 9.86778C12.1676 10.5488 12.1676 11.5021 11.4972 12.1831C10.8268 12.8641 9.88827 12.8641 9.21788 12.1831L6 8.91442L2.78212 12.1831C2.11173 12.8641 1.17319 12.8641 0.502793 12.1831C-0.167598 11.5021 -0.167598 10.5488 0.502793 9.86778L3.72067 6.59911L0.502793 3.33043C-0.167598 2.64946 -0.167598 1.6961 0.502793 1.01512C1.17319 0.470346 2.11173 0.470346 2.78212 1.01512Z" fill="#30343D"/>
</svg>
