<svg width="30" height="32" viewBox="0 0 30 32" fill="none" xmlns="http://www.w3.org/2000/svg">
<path d="M6.9553 2.01328L15 10.185L23.0447 2.01328C24.7207 0.310842 27.067 0.310842 28.743 2.01328C30.419 3.71571 30.419 6.09911 28.743 7.80154L20.6983 15.9732L28.743 24.1449C30.419 25.8474 30.419 28.2308 28.743 29.9332C27.067 31.6356 24.7207 31.6356 23.0447 29.9332L15 21.7615L6.9553 29.9332C5.27932 31.6356 2.93296 31.6356 1.25698 29.9332C-0.418993 28.2308 -0.418993 25.8474 1.25698 24.1449L9.30167 15.9732L1.25698 7.80154C-0.418993 6.09911 -0.418993 3.71571 1.25698 2.01328C2.93296 0.651328 5.27932 0.651328 6.9553 2.01328Z" fill="#30343D"/>
</svg>
