<svg width="34" height="35" viewBox="0 0 34 35" fill="none" xmlns="http://www.w3.org/2000/svg">
<path d="M7.88267 1.72026L17 10.9815L26.1173 1.72026C28.0168 -0.209163 30.676 -0.209163 32.5754 1.72026C34.4749 3.64969 34.4749 6.35087 32.5754 8.2803L23.4581 17.5415L32.5754 26.8028C34.4749 28.7322 34.4749 31.4334 32.5754 33.3628C30.676 35.2923 28.0168 35.2923 26.1173 33.3628L17 24.1016L7.88267 33.3628C5.98323 35.2923 3.32402 35.2923 1.42458 33.3628C-0.474857 31.4334 -0.474857 28.7322 1.42458 26.8028L10.5419 17.5415L1.42458 8.2803C-0.474857 6.35087 -0.474857 3.64969 1.42458 1.72026C3.32402 0.176722 5.98323 0.176722 7.88267 1.72026Z" fill="#30343D"/>
</svg>
