<svg width="30" height="32" viewBox="0 0 30 32" fill="none" xmlns="http://www.w3.org/2000/svg">
<path d="M6.9553 1.82169L15 9.99336L23.0447 1.82169C24.7207 0.119252 27.067 0.119252 28.743 1.82169C30.419 3.52412 30.419 5.90752 28.743 7.60995L20.6983 15.7816L28.743 23.9533C30.419 25.6558 30.419 28.0392 28.743 29.7416C27.067 31.444 24.7207 31.444 23.0447 29.7416L15 21.5699L6.9553 29.7416C5.27932 31.444 2.93296 31.444 1.25698 29.7416C-0.418993 28.0392 -0.418993 25.6558 1.25698 23.9533L9.30167 15.7816L1.25698 7.60995C-0.418993 5.90752 -0.418993 3.52412 1.25698 1.82169C2.93296 0.459739 5.27932 0.459739 6.9553 1.82169Z" fill="#30343D"/>
</svg>
