<svg width="12" height="13" viewBox="0 0 12 13" fill="none" xmlns="http://www.w3.org/2000/svg">
<path d="M9.21788 0.887439L6 4.15611L2.78212 0.887439C2.11173 0.206465 1.17318 0.206465 0.502793 0.887439C-0.167598 1.56841 -0.167598 2.52177 0.502793 3.20275L3.72067 6.47142L0.502793 9.7401C-0.167598 10.4211 -0.167598 11.3744 0.502793 12.0554C1.17318 12.7364 2.11173 12.7364 2.78212 12.0554L6 8.78673L9.21788 12.0554C9.88827 12.7364 10.8268 12.7364 11.4972 12.0554C12.1676 11.3744 12.1676 10.4211 11.4972 9.7401L8.27933 6.47142L11.4972 3.20275C12.1676 2.52177 12.1676 1.56841 11.4972 0.887439C10.8268 0.34266 9.88827 0.34266 9.21788 0.887439Z" fill="#30343D"/>
</svg>
