<svg width="19" height="19" viewBox="0 0 19 19" fill="none" xmlns="http://www.w3.org/2000/svg">
<path d="M4.21228 0.771792L9.08409 5.71125L13.9559 0.771792C14.9709 -0.257264 16.3918 -0.257264 17.4067 0.771792C18.4217 1.80085 18.4217 3.24152 17.4067 4.27058L12.535 9.21005L17.4067 14.1495C18.4217 15.1786 18.4217 16.6192 17.4067 17.6483C16.3918 18.6774 14.9709 18.6774 13.9559 17.6483L9.08409 12.7088L4.21228 17.6483C3.19732 18.6774 1.77639 18.6774 0.761429 17.6483C-0.253531 16.6192 -0.253531 15.1786 0.761429 14.1495L5.63323 9.21005L0.761429 4.27058C-0.253531 3.24152 -0.253531 1.80085 0.761429 0.771792C1.77639 -0.0514528 3.19732 -0.0514528 4.21228 0.771792Z" fill="#30343D"/>
</svg>
