<svg width="84" height="17" viewBox="0 0 84 17" fill="none" xmlns="http://www.w3.org/2000/svg">
<path d="M4.39618 8.41164H7.89192L6.64045 5.06146C6.46818 4.59863 6.29885 4.08748 6.13192 3.52759C5.98125 4.0229 5.81698 4.52863 5.63938 5.0453L4.39618 8.41164ZM8.48925 10.0021H3.80684L2.66071 13.1344H0.602051L5.18738 1.43676H7.13299L11.8234 13.1344H9.65991L8.48925 10.0021Z" fill="white"/>
<path d="M17.8962 11.0072C18.3026 10.461 18.5058 9.663 18.5058 8.61353C18.5058 7.63956 18.3375 6.933 18.0013 6.49425C17.6647 6.05572 17.2167 5.83644 16.657 5.83644C16.2695 5.83644 15.9117 5.92812 15.5834 6.11092C15.2551 6.29393 14.9429 6.53873 14.6469 6.8455V11.5117C14.8461 11.6085 15.0775 11.6853 15.3413 11.7416C15.605 11.7984 15.8661 11.8266 16.1242 11.8266C16.8994 11.8266 17.4898 11.5533 17.8962 11.0072ZM12.653 6.55497C12.653 5.90916 12.6314 5.19862 12.5885 4.42374H14.4613C14.5311 4.78436 14.5797 5.1531 14.6066 5.52966C15.3815 4.68489 16.2695 4.26217 17.2706 4.26217C17.8519 4.26217 18.3901 4.40884 18.8853 4.70206C19.3802 4.9955 19.7799 5.4583 20.0839 6.0906C20.3882 6.7231 20.5402 7.52654 20.5402 8.50052C20.5402 9.51769 20.3666 10.387 20.0194 11.108C19.6722 11.8294 19.1866 12.3754 18.5623 12.747C17.9381 13.1181 17.2167 13.3039 16.3989 13.3039C15.8066 13.3039 15.2226 13.2042 14.6469 13.0053V16.6056L12.653 16.7752V6.55497Z" fill="white"/>
<path d="M26.9935 11.0072C27.3999 10.461 27.6031 9.663 27.6031 8.61353C27.6031 7.63956 27.4349 6.933 27.0986 6.49425C26.7621 6.05572 26.3141 5.83644 25.7543 5.83644C25.3669 5.83644 25.009 5.92812 24.6807 6.11092C24.3522 6.29393 24.0402 6.53873 23.7442 6.8455V11.5117C23.9434 11.6085 24.1746 11.6853 24.4386 11.7416C24.7021 11.7984 24.9631 11.8266 25.2215 11.8266C25.9964 11.8266 26.5871 11.5533 26.9935 11.0072ZM21.7501 6.55497C21.7501 5.90916 21.7285 5.19862 21.6855 4.42374H23.5586C23.6285 4.78436 23.677 5.1531 23.7039 5.52966C24.4789 4.68489 25.3668 4.26217 26.3679 4.26217C26.9493 4.26217 27.4871 4.40884 27.9826 4.70206C28.4775 4.9955 28.8772 5.4583 29.1815 6.0906C29.4852 6.7231 29.6375 7.52654 29.6375 8.50052C29.6375 9.51769 29.4637 10.387 29.1167 11.108C28.7695 11.8294 28.2837 12.3754 27.6597 12.747C27.0351 13.1181 26.314 13.3039 25.4959 13.3039C24.9039 13.3039 24.3199 13.2042 23.7442 13.0053V16.6056L21.7501 16.7752V6.55497Z" fill="white"/>
<path d="M33.3005 12.5813C32.4391 12.1053 31.7773 11.4229 31.3146 10.5349C30.8514 9.64686 30.6202 8.59737 30.6202 7.38643C30.6202 6.07342 30.8866 4.9578 31.4194 4.04009C31.9522 3.1227 32.6775 2.43374 33.5949 1.97353C34.5127 1.51342 35.5418 1.28331 36.6831 1.28331C37.3557 1.28331 37.9975 1.35737 38.6085 1.50529C39.2191 1.65342 39.7882 1.85644 40.3159 2.11489L39.8071 3.64862C38.7468 3.14278 37.7351 2.88977 36.7719 2.88977C35.9591 2.88977 35.2474 3.06342 34.6367 3.4106C34.0258 3.7578 33.5506 4.26769 33.2117 4.94041C32.8725 5.61321 32.7031 6.42582 32.7031 7.3783C32.7031 8.21278 32.8335 8.95259 33.0943 9.59841C33.3557 10.2442 33.7674 10.7557 34.3298 11.1323C34.8922 11.509 35.6013 11.6973 36.457 11.6973C36.8445 11.6973 37.2319 11.6651 37.6194 11.6005C38.0069 11.536 38.3703 11.4418 38.7093 11.3179V8.95259H36.005V7.4026H40.6469V12.3272C39.9794 12.6392 39.2783 12.8789 38.5439 13.0456C37.809 13.2123 37.0786 13.2957 36.3519 13.2957C35.1786 13.2957 34.1613 13.0579 33.3005 12.5813Z" fill="white"/>
<path d="M46.5381 11.5197C46.9522 11.3208 47.2914 11.073 47.5551 10.7771V9.16249C47.0114 9.10342 46.5674 9.07374 46.2231 9.07374C45.3997 9.07374 44.8303 9.20675 44.5159 9.47342C44.2007 9.73945 44.0434 10.0989 44.0434 10.5509C44.0434 10.9818 44.1578 11.3005 44.3866 11.5077C44.6154 11.7149 44.9261 11.8184 45.3189 11.8184C45.717 11.8184 46.1234 11.7189 46.5381 11.5197ZM47.7327 13.1344C47.6626 12.7952 47.6167 12.4106 47.5954 11.98C47.2887 12.3461 46.8893 12.6568 46.3965 12.9125C45.9045 13.168 45.3485 13.2957 44.7295 13.2957C44.229 13.2957 43.773 13.1976 43.361 13.001C42.9498 12.8048 42.6226 12.5087 42.3805 12.113C42.1383 11.7176 42.017 11.2347 42.017 10.6639C42.017 9.81915 42.321 9.14497 42.9293 8.64163C43.5375 8.13852 44.5519 7.88697 45.9727 7.88697C46.5055 7.88697 47.033 7.92478 47.5551 7.99998V7.83052C47.5551 7.06092 47.3909 6.51873 47.0626 6.20364C46.7343 5.88905 46.2634 5.73156 45.6501 5.73156C45.2247 5.73156 44.7701 5.79353 44.2855 5.91718C43.8013 6.04113 43.3759 6.18905 43.0101 6.36124L42.6951 4.90812C43.0503 4.74654 43.5186 4.59862 44.0999 4.46404C44.6813 4.32966 45.2946 4.26217 45.9405 4.26217C46.6941 4.26217 47.3343 4.37654 47.8618 4.60518C48.3893 4.83404 48.801 5.22708 49.097 5.78385C49.393 6.34113 49.541 7.0906 49.541 8.03227V11.4954C49.541 11.8562 49.5623 12.4027 49.6055 13.1344H47.7327Z" fill="white"/>
<path d="M51.0709 11.0434V0.750517L53.0567 0.58905V10.6882C53.0567 11.0597 53.1199 11.3218 53.2463 11.4754C53.3727 11.6285 53.5732 11.7056 53.8479 11.7056C53.9716 11.7056 54.1466 11.676 54.3724 11.6168L54.6066 13.0456C54.418 13.121 54.1882 13.1816 53.9167 13.2272C53.6447 13.2728 53.3876 13.2957 53.1455 13.2957C51.762 13.2957 51.0709 12.5451 51.0709 11.0434Z" fill="white"/>
<path d="M56.0356 11.0434V0.750517L58.0215 0.58905V10.6882C58.0215 11.0597 58.0847 11.3218 58.2111 11.4754C58.3378 11.6285 58.5383 11.7056 58.8127 11.7056C58.9365 11.7056 59.1114 11.676 59.3375 11.6168L59.5717 13.0456C59.3831 13.121 59.153 13.1816 58.8815 13.2272C58.6095 13.2728 58.3524 13.2957 58.1103 13.2957C56.7271 13.2957 56.0356 12.5451 56.0356 11.0434Z" fill="white"/>
<path d="M65.7946 7.76593C65.7546 7.07164 65.5813 6.55102 65.2693 6.20364C64.9573 5.85676 64.5386 5.68299 64.0186 5.68299C63.5119 5.68299 63.0906 5.85812 62.7546 6.2078C62.4186 6.5578 62.1973 7.07708 62.0959 7.76593H65.7946ZM67.7386 9.03332H62.0399C62.1306 10.8579 62.9999 11.7701 64.6479 11.7701C65.0559 11.7701 65.4746 11.7203 65.9039 11.6208C66.3306 11.521 66.7413 11.388 67.1333 11.221L67.5706 12.5853C66.5946 13.0592 65.5013 13.2957 64.2853 13.2957C63.3573 13.2957 62.5786 13.121 61.9439 12.7711C61.3066 12.4213 60.8293 11.9181 60.5093 11.2613C60.1898 10.6051 60.0295 9.81385 60.0295 8.88801C60.0295 7.92478 60.1991 7.09582 60.5386 6.40156C60.8773 5.70726 61.3493 5.17726 61.9546 4.81124C62.5599 4.44529 63.2586 4.26217 64.0506 4.26217C64.8746 4.26217 65.5599 4.45468 66.1119 4.83956C66.6639 5.22414 67.0719 5.73697 67.3386 6.37726C67.6053 7.01801 67.7386 7.7255 67.7386 8.50052V9.03332Z" fill="white"/>
<path d="M69.2479 6.61146C69.2479 6.1326 69.2239 5.40343 69.1813 4.42375H71.0479C71.0799 4.66594 71.1092 4.95519 71.1413 5.29164C71.1706 5.62791 71.1893 5.90103 71.1999 6.11092C71.4319 5.72884 71.6586 5.40727 71.8826 5.14634C72.1066 4.88508 72.3679 4.67271 72.6666 4.50831C72.9653 4.34426 73.3039 4.26218 73.6879 4.26218C73.9946 4.26218 74.2559 4.29458 74.4773 4.35916L74.2266 6.08676C74.0346 6.02759 73.8186 5.99791 73.5813 5.99791C73.1146 5.99791 72.7039 6.1177 72.3546 6.35727C72.0052 6.59655 71.6319 6.99082 71.2319 7.53978V13.1344H69.2479V6.61146Z" fill="white"/>
<path d="M75.5973 16.6984C75.3066 16.6475 75.0666 16.5896 74.8799 16.5251L75.2426 15.072C75.3759 15.1094 75.5466 15.1458 75.7519 15.1808C75.9546 15.216 76.1493 15.2333 76.3333 15.2333C77.2159 15.2333 77.8773 14.6653 78.3173 13.5299L78.4479 13.207L75.2346 4.42374H77.3733L78.9893 9.33195C79.2506 10.1717 79.4213 10.8149 79.4959 11.2613C79.6479 10.6317 79.8239 10.0021 80.0293 9.37238L81.6693 4.42374H83.6773L80.4746 13.2475C80.1733 14.0816 79.8453 14.7541 79.4959 15.2656C79.1466 15.7768 78.7333 16.1562 78.2586 16.4039C77.7813 16.6512 77.2079 16.7752 76.5333 16.7752C76.1999 16.7752 75.8879 16.7499 75.5973 16.6984Z" fill="white"/>
</svg>
