<svg width="56" height="8" viewBox="0 0 56 8" fill="none" xmlns="http://www.w3.org/2000/svg">
<path d="M4.69886 5.974H1.90206L1.38686 7.4H0.503662L2.82206 1.0244H3.78806L6.09726 7.4H5.21406L4.69886 5.974ZM4.45966 5.2932L3.30046 2.0548L2.14126 5.2932H4.45966Z" fill="white"/>
<path d="M8.43248 6.6272L9.99648 2.3584H10.8889L8.91088 7.4H7.93568L5.95768 2.3584H6.85928L8.43248 6.6272Z" fill="white"/>
<path d="M11.4919 4.8608C11.4919 4.3456 11.5962 3.8948 11.8047 3.5084C12.0132 3.11587 12.2984 2.81227 12.6603 2.5976C13.0283 2.38294 13.4362 2.2756 13.8839 2.2756C14.3255 2.2756 14.7088 2.37067 15.0339 2.5608C15.359 2.75094 15.6012 2.99014 15.7607 3.2784V2.3584H16.6071V7.4H15.7607V6.4616C15.5951 6.756 15.3467 7.00134 15.0155 7.1976C14.6904 7.38774 14.3102 7.4828 13.8747 7.4828C13.427 7.4828 13.0222 7.3724 12.6603 7.1516C12.2984 6.9308 12.0132 6.62107 11.8047 6.2224C11.5962 5.82374 11.4919 5.36987 11.4919 4.8608ZM15.7607 4.87C15.7607 4.48974 15.684 4.15854 15.5307 3.8764C15.3774 3.59427 15.1688 3.3796 14.9051 3.2324C14.6475 3.07907 14.3623 3.0024 14.0495 3.0024C13.7367 3.0024 13.4515 3.076 13.1939 3.2232C12.9363 3.3704 12.7308 3.58507 12.5775 3.8672C12.4242 4.14934 12.3475 4.48054 12.3475 4.8608C12.3475 5.2472 12.4242 5.58454 12.5775 5.8728C12.7308 6.15494 12.9363 6.37267 13.1939 6.526C13.4515 6.6732 13.7367 6.7468 14.0495 6.7468C14.3623 6.7468 14.6475 6.6732 14.9051 6.526C15.1688 6.37267 15.3774 6.15494 15.5307 5.8728C15.684 5.58454 15.7607 5.25027 15.7607 4.87Z" fill="white"/>
<path d="M18.2703 1.5396C18.1108 1.5396 17.9759 1.4844 17.8655 1.374C17.7551 1.2636 17.6999 1.12867 17.6999 0.969203C17.6999 0.809737 17.7551 0.674804 17.8655 0.564404C17.9759 0.454004 18.1108 0.398804 18.2703 0.398804C18.4236 0.398804 18.5524 0.454004 18.6567 0.564404C18.7671 0.674804 18.8223 0.809737 18.8223 0.969203C18.8223 1.12867 18.7671 1.2636 18.6567 1.374C18.5524 1.4844 18.4236 1.5396 18.2703 1.5396ZM18.6751 2.3584V7.4H17.8379V2.3584H18.6751Z" fill="white"/>
<path d="M20.7552 0.592004V7.4H19.918V0.592004H20.7552Z" fill="white"/>
<path d="M21.8692 4.8608C21.8692 4.3456 21.9735 3.8948 22.182 3.5084C22.3906 3.11587 22.6758 2.81227 23.0376 2.5976C23.4056 2.38294 23.8135 2.2756 24.2612 2.2756C24.7028 2.2756 25.0862 2.37067 25.4112 2.5608C25.7363 2.75094 25.9786 2.99014 26.138 3.2784V2.3584H26.9844V7.4H26.138V6.4616C25.9724 6.756 25.724 7.00134 25.3928 7.1976C25.0678 7.38774 24.6875 7.4828 24.252 7.4828C23.8043 7.4828 23.3995 7.3724 23.0376 7.1516C22.6758 6.9308 22.3906 6.62107 22.182 6.2224C21.9735 5.82374 21.8692 5.36987 21.8692 4.8608ZM26.138 4.87C26.138 4.48974 26.0614 4.15854 25.908 3.8764C25.7547 3.59427 25.5462 3.3796 25.2824 3.2324C25.0248 3.07907 24.7396 3.0024 24.4268 3.0024C24.114 3.0024 23.8288 3.076 23.5712 3.2232C23.3136 3.3704 23.1082 3.58507 22.9548 3.8672C22.8015 4.14934 22.7248 4.48054 22.7248 4.8608C22.7248 5.2472 22.8015 5.58454 22.9548 5.8728C23.1082 6.15494 23.3136 6.37267 23.5712 6.526C23.8288 6.6732 24.114 6.7468 24.4268 6.7468C24.7396 6.7468 25.0248 6.6732 25.2824 6.526C25.5462 6.37267 25.7547 6.15494 25.908 5.8728C26.0614 5.58454 26.138 5.25027 26.138 4.87Z" fill="white"/>
<path d="M29.3284 3.2968C29.5001 2.99627 29.7516 2.75094 30.0828 2.5608C30.414 2.37067 30.7912 2.2756 31.2144 2.2756C31.6683 2.2756 32.0761 2.38294 32.438 2.5976C32.7999 2.81227 33.0851 3.11587 33.2936 3.5084C33.5021 3.8948 33.6064 4.3456 33.6064 4.8608C33.6064 5.36987 33.5021 5.82374 33.2936 6.2224C33.0851 6.62107 32.7968 6.9308 32.4288 7.1516C32.0669 7.3724 31.6621 7.4828 31.2144 7.4828C30.7789 7.4828 30.3956 7.38774 30.0644 7.1976C29.7393 7.00747 29.494 6.7652 29.3284 6.4708V7.4H28.4912V0.592004H29.3284V3.2968ZM32.7508 4.8608C32.7508 4.48054 32.6741 4.14934 32.5208 3.8672C32.3675 3.58507 32.1589 3.3704 31.8952 3.2232C31.6376 3.076 31.3524 3.0024 31.0396 3.0024C30.7329 3.0024 30.4477 3.07907 30.184 3.2324C29.9264 3.3796 29.7179 3.59734 29.5584 3.8856C29.4051 4.16774 29.3284 4.49587 29.3284 4.87C29.3284 5.25027 29.4051 5.58454 29.5584 5.8728C29.7179 6.15494 29.9264 6.37267 30.184 6.526C30.4477 6.6732 30.7329 6.7468 31.0396 6.7468C31.3524 6.7468 31.6376 6.6732 31.8952 6.526C32.1589 6.37267 32.3675 6.15494 32.5208 5.8728C32.6741 5.58454 32.7508 5.2472 32.7508 4.8608Z" fill="white"/>
<path d="M35.5456 0.592004V7.4H34.7084V0.592004H35.5456Z" fill="white"/>
<path d="M41.6645 4.686C41.6645 4.84547 41.6553 5.01414 41.6369 5.192H37.6073C37.6379 5.6888 37.8066 6.07827 38.1133 6.3604C38.4261 6.6364 38.8033 6.7744 39.2449 6.7744C39.6067 6.7744 39.9073 6.6916 40.1465 6.526C40.3918 6.35427 40.5635 6.12734 40.6617 5.8452H41.5633C41.4283 6.32974 41.1585 6.72534 40.7537 7.032C40.3489 7.33254 39.8459 7.4828 39.2449 7.4828C38.7665 7.4828 38.3371 7.37547 37.9569 7.1608C37.5827 6.94614 37.2883 6.64254 37.0737 6.25C36.859 5.85134 36.7517 5.39134 36.7517 4.87C36.7517 4.34867 36.8559 3.89174 37.0645 3.4992C37.273 3.10667 37.5643 2.80614 37.9385 2.5976C38.3187 2.38294 38.7542 2.2756 39.2449 2.2756C39.7233 2.2756 40.1465 2.37987 40.5145 2.5884C40.8825 2.79694 41.1646 3.0852 41.3609 3.4532C41.5633 3.81507 41.6645 4.226 41.6645 4.686ZM40.7997 4.5112C40.7997 4.19227 40.7291 3.91934 40.5881 3.6924C40.447 3.45934 40.2538 3.28454 40.0085 3.168C39.7693 3.04534 39.5025 2.984 39.2081 2.984C38.7849 2.984 38.423 3.11894 38.1225 3.3888C37.8281 3.65867 37.6594 4.0328 37.6165 4.5112H40.7997Z" fill="white"/>
<path d="M47.6051 7.4828C47.1328 7.4828 46.7035 7.37547 46.3171 7.1608C45.9368 6.94614 45.6363 6.64254 45.4155 6.25C45.2008 5.85134 45.0935 5.39134 45.0935 4.87C45.0935 4.3548 45.2039 3.90094 45.4247 3.5084C45.6516 3.10974 45.9583 2.80614 46.3447 2.5976C46.7311 2.38294 47.1635 2.2756 47.6419 2.2756C48.1203 2.2756 48.5527 2.38294 48.9391 2.5976C49.3255 2.80614 49.6291 3.10667 49.8499 3.4992C50.0768 3.89174 50.1903 4.34867 50.1903 4.87C50.1903 5.39134 50.0737 5.85134 49.8407 6.25C49.6137 6.64254 49.304 6.94614 48.9115 7.1608C48.5189 7.37547 48.0835 7.4828 47.6051 7.4828ZM47.6051 6.7468C47.9056 6.7468 48.1877 6.67627 48.4515 6.5352C48.7152 6.39414 48.9268 6.18254 49.0863 5.9004C49.2519 5.61827 49.3347 5.2748 49.3347 4.87C49.3347 4.4652 49.2549 4.12174 49.0955 3.8396C48.936 3.55747 48.7275 3.34894 48.4699 3.214C48.2123 3.07294 47.9332 3.0024 47.6327 3.0024C47.326 3.0024 47.0439 3.07294 46.7863 3.214C46.5348 3.34894 46.3324 3.55747 46.1791 3.8396C46.0257 4.12174 45.9491 4.4652 45.9491 4.87C45.9491 5.28094 46.0227 5.62747 46.1699 5.9096C46.3232 6.19174 46.5256 6.40334 46.7771 6.5444C47.0285 6.67934 47.3045 6.7468 47.6051 6.7468Z" fill="white"/>
<path d="M53.9314 2.2664C54.5448 2.2664 55.0416 2.45347 55.4218 2.8276C55.8021 3.1956 55.9922 3.7292 55.9922 4.4284V7.4H55.1642V4.548C55.1642 4.04507 55.0385 3.66174 54.787 3.398C54.5356 3.12814 54.1921 2.9932 53.7566 2.9932C53.315 2.9932 52.9624 3.1312 52.6986 3.4072C52.441 3.6832 52.3122 4.08494 52.3122 4.6124V7.4H51.475V2.3584H52.3122V3.076C52.4778 2.8184 52.7017 2.61907 52.9838 2.478C53.2721 2.33694 53.588 2.2664 53.9314 2.2664Z" fill="white"/>
</svg>
