<svg width="56" height="11" viewBox="0 0 56 11" fill="none" xmlns="http://www.w3.org/2000/svg">
<path d="M0.248535 9.75759V7.06938H0.727939C0.891291 6.93207 1.04399 6.73676 1.18604 6.48344C1.32808 6.23013 1.44882 5.88804 1.54825 5.45716C1.64768 5.02629 1.71634 4.4735 1.75422 3.79878L1.92467 0.727051H6.40976V7.06938H7.23362V9.74694H6.18248V7.99978H1.29967V9.75759H0.248535ZM2.02055 7.06938H5.35862V1.67165H2.91899L2.80535 3.79878C2.77458 4.31251 2.72368 4.77416 2.65265 5.18373C2.584 5.59329 2.49522 5.95551 2.38632 6.27037C2.27979 6.58287 2.15786 6.84921 2.02055 7.06938Z" fill="white"/>
<path d="M10.648 8.10986C10.1367 8.10986 9.69041 7.99268 9.30926 7.7583C8.9281 7.52393 8.63218 7.19604 8.42148 6.77464C8.21077 6.35323 8.10542 5.86081 8.10542 5.29736C8.10542 4.73155 8.21077 4.23676 8.42148 3.81299C8.63218 3.38922 8.9281 3.06015 9.30926 2.82577C9.69041 2.5914 10.1367 2.47421 10.648 2.47421C11.1594 2.47421 11.6057 2.5914 11.9868 2.82577C12.368 3.06015 12.6639 3.38922 12.8746 3.81299C13.0853 4.23676 13.1907 4.73155 13.1907 5.29736C13.1907 5.86081 13.0853 6.35323 12.8746 6.77464C12.6639 7.19604 12.368 7.52393 11.9868 7.7583C11.6057 7.99268 11.1594 8.10986 10.648 8.10986ZM10.6516 7.21853C10.983 7.21853 11.2576 7.13093 11.4755 6.95574C11.6933 6.78055 11.8542 6.54736 11.9584 6.25617C12.0649 5.96498 12.1182 5.64419 12.1182 5.29381C12.1182 4.9458 12.0649 4.6262 11.9584 4.33501C11.8542 4.04144 11.6933 3.80589 11.4755 3.62833C11.2576 3.45077 10.983 3.36199 10.6516 3.36199C10.3178 3.36199 10.0408 3.45077 9.82062 3.62833C9.60282 3.80589 9.44065 4.04144 9.33412 4.33501C9.22995 4.6262 9.17787 4.9458 9.17787 5.29381C9.17787 5.64419 9.22995 5.96498 9.33412 6.25617C9.44065 6.54736 9.60282 6.78055 9.82062 6.95574C10.0408 7.13093 10.3178 7.21853 10.6516 7.21853Z" fill="white"/>
<path d="M16.6734 8.10986C16.1455 8.10986 15.6909 7.99031 15.3098 7.7512C14.931 7.50972 14.6398 7.1771 14.4362 6.75333C14.2326 6.32956 14.1308 5.84424 14.1308 5.29736C14.1308 4.74339 14.235 4.25451 14.4433 3.83074C14.6516 3.40461 14.9452 3.07198 15.324 2.83287C15.7028 2.59377 16.149 2.47421 16.6628 2.47421C17.0771 2.47421 17.4464 2.55115 17.7707 2.70503C18.0951 2.85655 18.3567 3.06962 18.5555 3.34424C18.7568 3.61886 18.8763 3.93965 18.9142 4.3066H17.8808C17.824 4.05091 17.6938 3.83074 17.4902 3.64608C17.289 3.46143 17.0191 3.3691 16.6805 3.3691C16.3846 3.3691 16.1254 3.44722 15.9028 3.60347C15.6827 3.75735 15.511 3.97752 15.3879 4.26398C15.2648 4.54807 15.2033 4.88425 15.2033 5.27251C15.2033 5.67023 15.2636 6.01351 15.3844 6.30234C15.5051 6.59116 15.6756 6.81488 15.8957 6.9735C16.1183 7.13212 16.3799 7.21143 16.6805 7.21143C16.8818 7.21143 17.0641 7.17473 17.2274 7.10134C17.3931 7.02558 17.5316 6.91787 17.6429 6.77819C17.7565 6.63851 17.8358 6.47042 17.8808 6.27393H18.9142C18.8763 6.62667 18.7615 6.94154 18.5697 7.21853C18.378 7.49552 18.1211 7.71332 17.7991 7.87194C17.4795 8.03055 17.1043 8.10986 16.6734 8.10986Z" fill="white"/>
<path d="M19.6369 3.46143V2.54523H24.2391V3.46143H22.46V7.99978H21.4231V3.46143H19.6369Z" fill="white"/>
<path d="M26.0333 10.0452C25.8747 10.0452 25.7303 10.0322 25.6001 10.0062C25.4699 9.9825 25.3728 9.95645 25.3089 9.92805L25.5646 9.05802C25.7587 9.1101 25.9315 9.13259 26.0831 9.12549C26.2346 9.11839 26.3683 9.06157 26.4843 8.95503C26.6027 8.8485 26.7069 8.67449 26.7968 8.43302L26.9282 8.0708L24.9325 2.54523H26.0688L27.4502 6.77819H27.5071L28.8885 2.54523H30.0284L27.7805 8.72776C27.6763 9.01185 27.5438 9.25215 27.3828 9.44864C27.2218 9.64751 27.03 9.79665 26.8075 9.89609C26.5849 9.99552 26.3269 10.0452 26.0333 10.0452Z" fill="white"/>
<path d="M31.0262 7.99978V2.54523H35.4758V7.99978H34.4353V3.46143H32.0596V7.99978H31.0262Z" fill="white"/>
<path d="M40.5921 4.81441V5.73415H37.6376V4.81441H40.5921ZM37.9359 2.54523V7.99978H36.8954V2.54523H37.9359ZM41.3343 2.54523V7.99978H40.2974V2.54523H41.3343Z" fill="white"/>
<path d="M45.0523 8.10986C44.541 8.10986 44.0947 7.99268 43.7136 7.7583C43.3324 7.52393 43.0365 7.19604 42.8258 6.77464C42.6151 6.35323 42.5097 5.86081 42.5097 5.29736C42.5097 4.73155 42.6151 4.23676 42.8258 3.81299C43.0365 3.38922 43.3324 3.06015 43.7136 2.82577C44.0947 2.5914 44.541 2.47421 45.0523 2.47421C45.5637 2.47421 46.01 2.5914 46.3911 2.82577C46.7723 3.06015 47.0682 3.38922 47.2789 3.81299C47.4896 4.23676 47.5949 4.73155 47.5949 5.29736C47.5949 5.86081 47.4896 6.35323 47.2789 6.77464C47.0682 7.19604 46.7723 7.52393 46.3911 7.7583C46.01 7.99268 45.5637 8.10986 45.0523 8.10986ZM45.0559 7.21853C45.3873 7.21853 45.6619 7.13093 45.8797 6.95574C46.0976 6.78055 46.2585 6.54736 46.3627 6.25617C46.4692 5.96498 46.5225 5.64419 46.5225 5.29381C46.5225 4.9458 46.4692 4.6262 46.3627 4.33501C46.2585 4.04144 46.0976 3.80589 45.8797 3.62833C45.6619 3.45077 45.3873 3.36199 45.0559 3.36199C44.7221 3.36199 44.4451 3.45077 44.2249 3.62833C44.0071 3.80589 43.8449 4.04144 43.7384 4.33501C43.6342 4.6262 43.5822 4.9458 43.5822 5.29381C43.5822 5.64419 43.6342 5.96498 43.7384 6.25617C43.8449 6.54736 44.0071 6.78055 44.2249 6.95574C44.4451 7.13093 44.7221 7.21853 45.0559 7.21853Z" fill="white"/>
<path d="M51.4266 7.99978V2.54523H53.6887C54.3042 2.54523 54.7919 2.67662 55.1518 2.93941C55.5116 3.19983 55.6915 3.55376 55.6915 4.0012C55.6915 4.3208 55.5897 4.57412 55.3861 4.76114C55.1825 4.94817 54.9127 5.07364 54.5765 5.13756C54.8203 5.16597 55.044 5.23936 55.2476 5.35773C55.4512 5.47374 55.6146 5.62999 55.7377 5.82648C55.8632 6.02298 55.9259 6.25735 55.9259 6.52961C55.9259 6.81843 55.8513 7.07412 55.7022 7.29665C55.553 7.51682 55.3364 7.68965 55.0523 7.81512C54.7706 7.93823 54.4309 7.99978 54.0332 7.99978H51.4266ZM52.4245 7.11199H54.0332C54.2959 7.11199 54.5019 7.04926 54.6511 6.92378C54.8002 6.79831 54.8748 6.62786 54.8748 6.41242C54.8748 6.15911 54.8002 5.96024 54.6511 5.81583C54.5019 5.66905 54.2959 5.59566 54.0332 5.59566H52.4245V7.11199ZM52.4245 4.81796H53.6994C53.8982 4.81796 54.0687 4.78955 54.2107 4.73273C54.3551 4.67591 54.4652 4.59542 54.541 4.49126C54.6191 4.38472 54.6582 4.25925 54.6582 4.11483C54.6582 3.90413 54.5717 3.7396 54.3989 3.62123C54.2261 3.50286 53.9894 3.44367 53.6887 3.44367H52.4245V4.81796Z" fill="white"/>
</svg>
