<svg width="25" height="24" viewBox="0 0 25 24" fill="none" xmlns="http://www.w3.org/2000/svg">
<path d="M11.0512 0.107978C12.2165 -0.0546317 13.3954 -0.0275301 14.5473 0.14863C14.5744 0.162181 14.6421 0.175732 14.6692 0.189283C15.6449 1.99154 16.607 3.80734 17.5826 5.6096C19.5204 5.94837 21.4446 6.30069 23.3824 6.63946H23.3959C23.9515 7.77773 24.3309 8.9973 24.5206 10.244C23.2333 11.721 21.8647 13.1167 20.5367 14.5802C20.7129 15.976 20.8755 17.3581 21.0516 18.7539C21.1058 19.2959 21.2143 19.8515 21.2007 20.4071V20.4342C20.2928 21.3285 19.2765 22.0874 18.1518 22.6836C16.3631 21.8163 14.5473 20.9762 12.745 20.1089C10.9157 20.9762 9.08629 21.857 7.27049 22.7378C6.21353 22.1958 5.22432 21.5047 4.35707 20.6781C4.60098 18.6455 4.83135 16.6128 5.07526 14.5802C3.65243 13.0896 2.27025 11.5719 0.820312 10.122C0.996473 8.88889 1.41655 7.70997 1.94503 6.59881L1.86372 6.80207C3.89634 6.4091 5.91541 6.01612 7.94803 5.62315C8.11064 5.62315 8.16484 5.43344 8.2326 5.32503C9.1676 3.54988 10.1297 1.84248 11.0512 0.107978Z" fill="white"/>
<path d="M1.95825 6.55809C3.66565 3.08908 7.20241 0.541535 11.0508 0.10791C10.1294 1.84241 9.16728 3.54981 8.24582 5.28431C8.16452 5.39272 8.12386 5.58243 7.96126 5.58243C5.92864 5.9754 3.90957 6.36838 1.87695 6.76135L1.95825 6.55809Z" fill="#D6161B"/>
<path d="M14.5479 0.148438C18.315 0.690469 21.7433 3.21092 23.383 6.63927C21.4452 6.31405 19.521 5.96173 17.5832 5.60941C16.6076 3.80715 15.6455 1.99135 14.6698 0.18909C14.6427 0.175539 14.575 0.148438 14.5479 0.148438Z" fill="#D6161B"/>
<path d="M9.30289 7.50684C11.5117 7.50684 13.734 7.50684 15.9428 7.50684C16.6203 9.60721 17.2979 11.7076 17.989 13.7944C16.2138 15.1224 14.398 16.4097 12.6093 17.7241C10.8206 16.4233 9.03187 15.1224 7.24316 13.8215C7.9207 11.7211 8.6118 9.60721 9.30289 7.50684Z" fill="#D6161B"/>
<path d="M0.806905 10.0679L0.834008 10.095C2.28395 11.5449 3.66613 13.0761 5.08896 14.5532C4.8586 16.5858 4.61469 18.6184 4.37077 20.651C1.51155 18.0222 0.156466 13.8892 0.806905 10.0679Z" fill="#D6161B"/>
<path d="M20.5498 14.5667C21.8642 13.1168 23.2329 11.7075 24.5337 10.2305C25.1029 13.8756 23.8698 17.7918 21.2138 20.38C21.2273 19.8244 21.1325 19.2824 21.0647 18.7268C20.8886 17.3446 20.7124 15.9625 20.5498 14.5667Z" fill="#D6161B"/>
<path d="M7.28418 22.7109C9.11353 21.8301 10.9293 20.9493 12.7587 20.082C14.5609 20.9493 16.3632 21.7759 18.1654 22.6567C14.832 24.4183 10.6312 24.4589 7.28418 22.7109Z" fill="#D6161B"/>
</svg>
