<svg width="62" height="7" viewBox="0 0 62 7" fill="none" xmlns="http://www.w3.org/2000/svg">
<path d="M0.593262 0.301065H4.14739L4.04739 1.15946H1.63486V2.82186H3.9098V3.62613H1.63486V5.46773H4.17646L4.08899 6.33437H0.593262V0.301065Z" fill="white"/>
<path d="M6.59725 3.2552L4.72232 0.301065H5.90552L7.17646 2.472L8.51405 0.301065H9.66392L7.80552 3.2176L9.81806 6.33437H8.61806L7.18071 3.95946L5.71806 6.33437H4.56819L6.59725 3.2552Z" fill="white"/>
<path d="M13.1973 2.99466C13.4194 2.7936 13.5306 2.50933 13.5306 2.14266C13.5306 1.7704 13.4172 1.50266 13.1911 1.33866C12.9647 1.17466 12.6319 1.0928 12.1932 1.0928H11.6266V3.2344C11.8876 3.276 12.0876 3.2968 12.2266 3.2968C12.6514 3.2968 12.9751 3.19626 13.1973 2.99466ZM10.5847 0.301065H12.2098C12.9735 0.301065 13.5583 0.456798 13.9639 0.767731C14.3695 1.07893 14.5722 1.5288 14.5722 2.1176C14.5722 2.5176 14.4813 2.8672 14.2994 3.1656C14.1173 3.46426 13.8639 3.6936 13.5388 3.85306C13.214 4.01306 12.8402 4.0928 12.418 4.0928C12.1876 4.0928 11.9236 4.06506 11.6266 4.00933V6.33437H10.5847V0.301065Z" fill="white"/>
<path d="M15.6015 0.301065H16.6431V5.44266H19.1389L19.0514 6.33437H15.6015V0.301065Z" fill="white"/>
<path d="M23.4223 5.29892C23.714 5.10319 23.9319 4.83386 24.0764 4.49066C24.221 4.14772 24.2932 3.75519 24.2932 3.31359C24.2932 2.88026 24.2292 2.49439 24.1015 2.15519C23.9735 1.81625 23.7695 1.54639 23.489 1.34479C23.2084 1.14346 22.8474 1.04266 22.4055 1.04266C21.9834 1.04266 21.625 1.14479 21.3306 1.34906C21.0362 1.55306 20.8154 1.82692 20.6682 2.16986C20.521 2.51306 20.4474 2.89145 20.4474 3.30532C20.4474 3.74132 20.5167 4.13172 20.6556 4.47599C20.7943 4.82052 21.0068 5.09279 21.2932 5.29279C21.5791 5.49279 21.9332 5.59279 22.3556 5.59279C22.7751 5.59279 23.1306 5.49466 23.4223 5.29892ZM20.7223 6.03866C20.2807 5.78586 19.9431 5.43092 19.7098 4.97386C19.4764 4.51706 19.3599 3.98586 19.3599 3.38026C19.3599 2.74426 19.4839 2.18799 19.7327 1.71146C19.9813 1.23519 20.3396 0.86719 20.8076 0.60719C21.2756 0.347723 21.8277 0.21759 22.4639 0.21759C23.0722 0.21759 23.5959 0.343457 24.0348 0.594657C24.4735 0.846391 24.8084 1.19972 25.0388 1.65519C25.2695 2.11092 25.3847 2.63865 25.3847 3.23865C25.3847 3.88585 25.2591 4.44852 25.0076 4.92612C24.7562 5.40372 24.3981 5.77199 23.9327 6.03012C23.4674 6.28852 22.921 6.4177 22.2932 6.4177C21.6876 6.4177 21.1639 6.29146 20.7223 6.03866Z" fill="white"/>
<path d="M28.1807 3.1552C28.4333 3.1552 28.657 3.10613 28.8514 3.0072C29.0458 2.9088 29.1973 2.76986 29.3055 2.59066C29.4141 2.41146 29.4682 2.20373 29.4682 1.96773C29.4682 1.66506 29.3722 1.44346 29.1807 1.3032C28.989 1.16293 28.7098 1.0928 28.3431 1.0928H27.589V3.1552H28.1807ZM26.5474 0.301065H28.4349C29.1237 0.301065 29.6453 0.438664 29.9994 0.713597C30.3535 0.988531 30.5306 1.38186 30.5306 1.8928C30.5306 2.21226 30.4666 2.4936 30.3389 2.73653C30.2111 2.97973 30.0527 3.1776 29.864 3.33013C29.6749 3.48293 29.4807 3.5968 29.2807 3.672L31.1349 6.33437H29.9266L28.3557 3.94266H27.589V6.33437H26.5474V0.301065Z" fill="white"/>
<path d="M31.9599 0.301065H35.5141L35.4141 1.15946H33.0015V2.82186H35.2765V3.62613H33.0015V5.46773H35.5431L35.4556 6.33437H31.9599V0.301065Z" fill="white"/>
<path d="M39.3807 0.301065H40.4223V6.33437H39.3807V0.301065Z" fill="white"/>
<path d="M43.1765 1.172H41.3055L41.3973 0.301065H46.0933L45.9973 1.172H44.218V6.33437H43.1765V1.172Z" fill="white"/>
<path d="M53.3141 5.29892C53.6055 5.10319 53.8237 4.83386 53.9682 4.49066C54.1125 4.14772 54.1847 3.75519 54.1847 3.31359C54.1847 2.88026 54.1207 2.49439 53.9933 2.15519C53.8653 1.81625 53.661 1.54639 53.3807 1.34479C53.0999 1.14346 52.7389 1.04266 52.2973 1.04266C51.8749 1.04266 51.5167 1.14479 51.2223 1.34906C50.9277 1.55306 50.7069 1.82692 50.5599 2.16986C50.4125 2.51306 50.3389 2.89145 50.3389 3.30532C50.3389 3.74132 50.4082 4.13172 50.5474 4.47599C50.6861 4.82052 50.8986 5.09279 51.1847 5.29279C51.4709 5.49279 51.825 5.59279 52.2474 5.59279C52.6666 5.59279 53.0223 5.49466 53.3141 5.29892ZM50.6141 6.03866C50.1722 5.78586 49.8349 5.43092 49.6015 4.97386C49.3682 4.51706 49.2514 3.98586 49.2514 3.38026C49.2514 2.74426 49.3757 2.18799 49.6245 1.71146C49.8727 1.23519 50.2311 0.86719 50.6994 0.60719C51.1674 0.347723 51.7194 0.21759 52.3557 0.21759C52.9639 0.21759 53.4874 0.343457 53.9266 0.594657C54.3653 0.846391 54.6999 1.19972 54.9306 1.65519C55.161 2.11092 55.2765 2.63865 55.2765 3.23865C55.2765 3.88585 55.1506 4.44852 54.8994 4.92612C54.6479 5.40372 54.2895 5.77199 53.8245 6.03012C53.3591 6.28852 52.8125 6.4177 52.1847 6.4177C51.5791 6.4177 51.0557 6.29146 50.6141 6.03866Z" fill="white"/>
<path d="M56.4389 0.301065H57.6349L60.6186 4.976C60.5919 4.53173 60.5813 4.12186 60.5813 3.74693V0.301065H61.5466V6.33437H60.3893L57.3599 1.58426C57.3903 2.12346 57.4055 2.60106 57.4055 3.0176V6.33437H56.4389V0.301065Z" fill="white"/>
</svg>
