<svg width="57" height="9" viewBox="0 0 57 9" fill="none" xmlns="http://www.w3.org/2000/svg">
<path d="M5.89666 4.93466C5.89666 5.63352 5.76882 6.23438 5.51314 6.73722C5.25746 7.23793 4.90696 7.62358 4.46165 7.89418C4.01847 8.16264 3.51456 8.29688 2.94993 8.29688C2.38317 8.29688 1.87713 8.16264 1.43182 7.89418C0.988636 7.62358 0.639205 7.23686 0.383523 6.73402C0.127841 6.23118 0 5.63139 0 4.93466C0 4.2358 0.127841 3.63601 0.383523 3.1353C0.639205 2.63246 0.988636 2.2468 1.43182 1.97834C1.87713 1.70774 2.38317 1.57244 2.94993 1.57244C3.51456 1.57244 4.01847 1.70774 4.46165 1.97834C4.90696 2.2468 5.25746 2.63246 5.51314 3.1353C5.76882 3.63601 5.89666 4.2358 5.89666 4.93466ZM4.91868 4.93466C4.91868 4.40199 4.83239 3.95348 4.6598 3.58913C4.48935 3.22266 4.25497 2.94567 3.95668 2.75817C3.66051 2.56854 3.32493 2.47372 2.94993 2.47372C2.5728 2.47372 2.23615 2.56854 1.93999 2.75817C1.64382 2.94567 1.40945 3.22266 1.23686 3.58913C1.06641 3.95348 0.981179 4.40199 0.981179 4.93466C0.981179 5.46733 1.06641 5.9169 1.23686 6.28338C1.40945 6.64773 1.64382 6.92472 1.93999 7.11435C2.23615 7.30185 2.5728 7.3956 2.94993 7.3956C3.32493 7.3956 3.66051 7.30185 3.95668 7.11435C4.25497 6.92472 4.48935 6.64773 4.6598 6.28338C4.83239 5.9169 4.91868 5.46733 4.91868 4.93466Z" fill="white"/>
<path d="M6.52388 2.51207V1.66193H11.5896V2.51207H9.54732V8.20739H8.56294V2.51207H6.52388Z" fill="white"/>
<path d="M16.5922 8.20739L14.3933 5.27344H13.6966V8.20739H12.709V1.66193H13.6966V4.42649H14.0194L16.4931 1.66193H17.698L15.0804 4.59269L17.7971 8.20739H16.5922Z" fill="white"/>
<path d="M18.7119 8.20739V1.66193H21.045C21.5542 1.66193 21.9761 1.75462 22.3106 1.93999C22.6452 2.12536 22.8955 2.37891 23.0617 2.70064C23.2279 3.02024 23.311 3.38033 23.311 3.7809C23.311 4.18359 23.2268 4.54581 23.0585 4.86754C22.8923 5.18715 22.6409 5.4407 22.3042 5.6282C21.9697 5.81357 21.5489 5.90625 21.0418 5.90625H19.4374V5.06889H20.9523C21.2741 5.06889 21.5351 5.01349 21.7354 4.9027C21.9356 4.78977 22.0827 4.63636 22.1764 4.44247C22.2702 4.24858 22.317 4.02805 22.317 3.7809C22.317 3.53374 22.2702 3.31428 22.1764 3.12251C22.0827 2.93075 21.9346 2.78054 21.7322 2.67188C21.5319 2.56321 21.2677 2.50888 20.9395 2.50888H19.6995V8.20739H18.7119Z" fill="white"/>
<path d="M30.1545 4.93466C30.1545 5.63352 30.0266 6.23438 29.771 6.73722C29.5153 7.23793 29.1648 7.62358 28.7195 7.89418C28.2763 8.16264 27.7724 8.29688 27.2077 8.29688C26.641 8.29688 26.1349 8.16264 25.6896 7.89418C25.2464 7.62358 24.897 7.23686 24.6413 6.73402C24.3857 6.23118 24.2578 5.63139 24.2578 4.93466C24.2578 4.2358 24.3857 3.63601 24.6413 3.1353C24.897 2.63246 25.2464 2.2468 25.6896 1.97834C26.1349 1.70774 26.641 1.57244 27.2077 1.57244C27.7724 1.57244 28.2763 1.70774 28.7195 1.97834C29.1648 2.2468 29.5153 2.63246 29.771 3.1353C30.0266 3.63601 30.1545 4.2358 30.1545 4.93466ZM29.1765 4.93466C29.1765 4.40199 29.0902 3.95348 28.9176 3.58913C28.7472 3.22266 28.5128 2.94567 28.2145 2.75817C27.9183 2.56854 27.5827 2.47372 27.2077 2.47372C26.8306 2.47372 26.494 2.56854 26.1978 2.75817C25.9016 2.94567 25.6673 3.22266 25.4947 3.58913C25.3242 3.95348 25.239 4.40199 25.239 4.93466C25.239 5.46733 25.3242 5.9169 25.4947 6.28338C25.6673 6.64773 25.9016 6.92472 26.1978 7.11435C26.494 7.30185 26.8306 7.3956 27.2077 7.3956C27.5827 7.3956 27.9183 7.30185 28.2145 7.11435C28.5128 6.92472 28.7472 6.64773 28.9176 6.28338C29.0902 5.9169 29.1765 5.46733 29.1765 4.93466Z" fill="white"/>
<path d="M31.3857 1.66193H32.3637V6.46875H32.4244L35.7547 1.66193H36.6688V8.20739H35.6812V3.40696H35.6205L32.2966 8.20739H31.3857V1.66193ZM34.6553 0H35.4415C35.4415 0.360085 35.3137 0.653054 35.058 0.878907C34.8044 1.10263 34.4614 1.21449 34.0289 1.21449C33.5985 1.21449 33.2565 1.10263 33.0029 0.878907C32.7494 0.653054 32.6226 0.360085 32.6226 0H33.4056C33.4056 0.159801 33.4525 0.301492 33.5463 0.425071C33.64 0.54652 33.8009 0.607245 34.0289 0.607245C34.2526 0.607245 34.4124 0.54652 34.5083 0.425071C34.6063 0.303622 34.6553 0.161932 34.6553 0Z" fill="white"/>
<path d="M37.7866 2.51207V1.66193H42.8523V2.51207H40.81V8.20739H39.8256V2.51207H37.7866Z" fill="white"/>
<path d="M43.9717 8.20739V1.66193H48.0754V2.51207H44.9593V4.50639H47.8612V5.35334H44.9593V7.35724H48.1137V8.20739H43.9717Z" fill="white"/>
<path d="M51.7764 8.20739V1.66193H54.1734C54.6379 1.66193 55.0225 1.73864 55.3271 1.89205C55.6318 2.04332 55.8598 2.24893 56.0111 2.50888C56.1624 2.76669 56.238 3.05753 56.238 3.38139C56.238 3.65412 56.1879 3.88423 56.0878 4.07173C55.9877 4.2571 55.8534 4.40625 55.6851 4.51918C55.5189 4.62997 55.3357 4.71094 55.1354 4.76207V4.82599C55.3527 4.83665 55.5647 4.90696 55.7714 5.03693C55.9802 5.16477 56.1528 5.34695 56.2892 5.58345C56.4255 5.81996 56.4937 6.1076 56.4937 6.44638C56.4937 6.7809 56.4149 7.08132 56.2572 7.34766C56.1017 7.61186 55.8609 7.82173 55.5349 7.97727C55.2089 8.13068 54.7923 8.20739 54.2852 8.20739H51.7764ZM52.7639 7.36044H54.1894C54.6624 7.36044 55.0012 7.26882 55.2057 7.08558C55.4102 6.90234 55.5125 6.6733 55.5125 6.39844C55.5125 6.19176 55.4603 6.00213 55.3559 5.82955C55.2515 5.65696 55.1024 5.51953 54.9085 5.41726C54.7167 5.31499 54.4887 5.26385 54.2245 5.26385H52.7639V7.36044ZM52.7639 4.49361H54.0871C54.3087 4.49361 54.5079 4.45099 54.6847 4.36577C54.8637 4.28054 55.0054 4.16122 55.1098 4.00781C55.2164 3.85227 55.2696 3.66903 55.2696 3.4581C55.2696 3.1875 55.1748 2.96058 54.9852 2.77734C54.7955 2.59411 54.5047 2.50249 54.1127 2.50249H52.7639V4.49361Z" fill="white"/>
</svg>
