<svg width="97" height="16" viewBox="0 0 97 16" fill="none" xmlns="http://www.w3.org/2000/svg">
<path d="M22.7516 0.398727H24.7715V11.3885H22.7516V0.398727Z" fill="white"/>
<path d="M0.5 5.96988C0.5 2.88113 2.83142 0.400871 6.039 0.400871C8.28161 0.400871 10.0489 1.54438 10.9695 3.17788L9.18748 4.24727C8.51926 3.01465 7.47987 2.36113 6.05401 2.36113C4.03434 2.36113 2.50466 3.99462 2.50466 5.96988C2.50466 7.97455 4.01964 9.57864 6.12812 9.57864C7.74692 9.57864 8.87572 8.65777 9.26159 7.23221H5.80166V5.30166H11.4298V6.10371C11.4298 9.02894 9.36571 11.5392 6.12812 11.5392C2.7423 11.5392 0.5 8.96953 0.5 5.96988Z" fill="white"/>
<path d="M12.3525 7.05429C12.3525 4.17316 14.4613 2.52497 16.6592 2.52497C17.8027 2.52497 18.8274 2.99995 19.4512 3.74259V2.7032H21.4558V11.3907H19.4512V10.2616C18.8124 11.0636 17.773 11.5689 16.6295 11.5689C14.5354 11.5689 12.3525 9.8904 12.3525 7.05429ZM19.555 7.02458C19.555 5.55431 18.4412 4.35139 16.9562 4.35139C15.4713 4.35139 14.3278 5.52492 14.3278 7.02458C14.3278 8.53895 15.4713 9.72717 16.9562 9.72717C18.4412 9.72717 19.555 8.52425 19.555 7.02458Z" fill="white"/>
<path d="M25.7938 7.05429C25.7938 4.17316 27.9026 2.52497 30.1005 2.52497C31.244 2.52497 32.2686 2.99995 32.8925 3.74259V2.7032H34.8971V11.3907H32.8925V10.2616C32.2539 11.0636 31.2146 11.5689 30.0707 11.5689C27.977 11.5689 25.7938 9.8904 25.7938 7.05429ZM32.9966 7.02458C32.9966 5.55431 31.8828 4.35139 30.3981 4.35139C28.9128 4.35139 27.7693 5.52492 27.7693 7.02458C27.7693 8.53895 28.9128 9.72717 30.3981 9.72717C31.8825 9.72717 32.9966 8.52425 32.9966 7.02458Z" fill="white"/>
<path d="M38.8048 6.96517L35.6566 2.7032H38.1072L40.0818 5.4652L42.0424 2.7032H44.4182L41.2994 6.99488L44.6261 11.3907H42.1759L40.0524 8.49485L37.988 11.3907H35.5375L38.8048 6.96517Z" fill="white"/>
<path d="M48.3846 10.9598L44.8206 2.70289H46.9588L49.3796 8.55396L51.6663 2.70289H53.7757L48.5926 15.4H46.5582L48.3846 10.9598Z" fill="white"/>
<path d="M57.8907 9.59365L59.7321 8.13839C60.2818 9.07396 61.1283 9.60835 62.108 9.60835C63.1777 9.60835 63.7568 8.91103 63.7568 8.15309C63.7568 7.23252 62.658 6.95047 61.4995 6.59401C60.0442 6.13342 58.4257 5.56932 58.4257 3.50494C58.4257 1.76763 59.9404 0.401178 62.0188 0.401178C63.7718 0.401178 64.7815 1.0697 65.6576 1.97557L63.9944 3.23759C63.5338 2.55467 62.8953 2.19821 62.0342 2.19821C61.0542 2.19821 60.5195 2.73291 60.5195 3.43052C60.5195 4.29198 61.5592 4.57434 62.7324 4.96051C64.2027 5.43549 65.8655 6.08901 65.8655 8.16809C65.8655 9.8757 64.4994 11.5395 62.1233 11.5395C60.1627 11.5392 58.8707 10.7071 57.8907 9.59365Z" fill="white"/>
<path d="M66.03 2.70289H67.515V1.38115L69.5349 0V2.70289H71.3023V4.49992H69.5349V7.75191C69.5349 9.26689 69.7429 9.50453 71.3023 9.50453V11.3904H71.0199C68.3323 11.3904 67.5153 10.5292 67.5153 7.76722V4.49992H66.0303L66.03 2.70289Z" fill="white"/>
<path d="M71.8376 7.05429C71.8376 4.52963 73.8272 2.52466 76.3369 2.52466C78.8315 2.52466 80.8365 4.52963 80.8365 7.05429C80.8365 9.56394 78.8315 11.5689 76.3369 11.5689C73.8272 11.5689 71.8376 9.56394 71.8376 7.05429ZM78.8616 7.05429C78.8616 5.59903 77.7474 4.41081 76.3369 4.41081C74.8963 4.41081 73.8122 5.59903 73.8122 7.05429C73.8122 8.49485 74.8963 9.68277 76.3369 9.68277C77.7474 9.68277 78.8616 8.49485 78.8616 7.05429Z" fill="white"/>
<path d="M83.8527 2.70289V3.99493C84.2535 3.13347 84.9812 2.70289 86.08 2.70289C86.7038 2.70289 87.2232 2.85142 87.6097 3.07406L86.852 4.9749C86.555 4.78197 86.2135 4.63344 85.6491 4.63344C84.4909 4.63344 83.8671 5.25726 83.8671 6.75693V11.3904H81.8624V2.70289H83.8527Z" fill="white"/>
<path d="M87.8335 7.06899C87.8335 4.52963 89.8082 2.52466 92.3478 2.52466C94.9319 2.52466 96.8181 4.42551 96.8181 6.99488V7.75191H89.7494C90.0167 8.97014 90.9967 9.80159 92.4226 9.80159C93.5364 9.80159 94.4125 9.19278 94.8281 8.27191L96.4766 9.22218C95.7193 10.6186 94.3528 11.5686 92.4226 11.5686C89.69 11.5686 87.8335 9.57864 87.8335 7.06899ZM89.8532 6.07401H94.7837C94.4866 4.9158 93.5958 4.29198 92.3482 4.29198C91.1449 4.29198 90.2097 5.01962 89.8532 6.07401Z" fill="white"/>
</svg>
