<svg width="96" height="24" viewBox="0 0 96 24" fill="none" xmlns="http://www.w3.org/2000/svg">
<path d="M55.0512 0.107978C56.2165 -0.0546317 57.3954 -0.0275301 58.5473 0.14863C58.5744 0.162181 58.6421 0.175732 58.6692 0.189283C59.6449 1.99154 60.607 3.80734 61.5826 5.6096C63.5204 5.94837 65.4446 6.30069 67.3824 6.63946H67.3959C67.9515 7.77773 68.3309 8.9973 68.5206 10.244C67.2333 11.721 65.8647 13.1167 64.5367 14.5802C64.7129 15.976 64.8755 17.3581 65.0516 18.7539C65.1058 19.2959 65.2143 19.8515 65.2007 20.4071V20.4342C64.2928 21.3285 63.2765 22.0874 62.1518 22.6836C60.3631 21.8163 58.5473 20.9762 56.745 20.1089C54.9157 20.9762 53.0863 21.857 51.2705 22.7378C50.2135 22.1958 49.2243 21.5047 48.3571 20.6781C48.601 18.6455 48.8313 16.6128 49.0753 14.5802C47.6524 13.0896 46.2702 11.5719 44.8203 10.122C44.9965 8.88889 45.4165 7.70997 45.945 6.59881L45.8637 6.80207C47.8963 6.4091 49.9154 6.01612 51.948 5.62315C52.1106 5.62315 52.1648 5.43344 52.2326 5.32503C53.1676 3.54988 54.1297 1.84248 55.0512 0.107978Z" fill="white"/>
<path d="M45.9583 6.55809C47.6657 3.08908 51.2024 0.541535 55.0508 0.10791C54.1294 1.84241 53.1673 3.54981 52.2458 5.28431C52.1645 5.39272 52.1239 5.58243 51.9613 5.58243C49.9286 5.9754 47.9096 6.36838 45.877 6.76135L45.9583 6.55809Z" fill="#D6161B"/>
<path d="M58.5479 0.148438C62.315 0.690469 65.7433 3.21092 67.383 6.63927C65.4452 6.31405 63.521 5.96173 61.5832 5.60941C60.6076 3.80715 59.6455 1.99135 58.6698 0.18909C58.6427 0.175539 58.575 0.148438 58.5479 0.148438Z" fill="#D6161B"/>
<path d="M5.63146 0.501227C5.80762 0.406371 6.01089 0.433473 6.2006 0.419922C8.02995 0.433473 9.85931 0.406371 11.6887 0.433473C12.0274 0.419922 12.2849 0.785793 12.1765 1.11101C10.7808 6.30097 9.37148 11.4909 8.00285 16.6809C7.8809 17.0061 8.16546 17.372 8.50423 17.3449C12.2036 17.3584 15.8894 17.3449 19.5888 17.3449C19.9276 17.3178 20.2121 17.6836 20.1037 18.0088C19.8191 19.1065 19.521 20.2041 19.2229 21.3017C19.1823 21.5863 18.9112 21.776 18.6402 21.7489C12.6372 21.7489 6.62067 21.7489 0.61767 21.7489C0.238248 21.8031 -0.114073 21.4101 0.0349859 21.0442C1.81014 14.323 3.59885 7.60184 5.38755 0.867098C5.4282 0.73159 5.49596 0.582531 5.63146 0.501227Z" fill="white"/>
<path d="M27.2862 0.527818C27.5843 0.39231 27.9096 0.432963 28.2212 0.432963C33.628 0.432963 39.0212 0.432963 44.4144 0.432963C44.6177 0.432963 44.8616 0.460064 44.9971 0.636225C45.2681 0.920791 45.1462 1.38152 44.9971 1.69319C44.2518 2.56044 43.5878 3.48189 43.0323 4.48465C42.9374 4.66081 42.8019 4.86407 42.5715 4.85052C39.4142 4.86407 36.2433 4.85052 33.086 4.85052C32.7878 4.82342 32.4897 4.99958 32.4084 5.28415C32.151 6.2056 31.9206 7.14061 31.6767 8.06206C31.5547 8.42793 31.8528 8.84801 32.2323 8.84801C35.105 8.86156 37.9914 8.84801 40.8777 8.86156C41.2571 8.84801 41.5552 9.26808 41.4468 9.63395C41.1893 10.6638 40.9048 11.6801 40.6338 12.6964C40.5796 12.981 40.3085 13.1978 40.024 13.1843C36.9479 13.1978 33.8584 13.1843 30.7823 13.1843C30.5113 13.1843 30.2538 13.374 30.1996 13.6314C29.9286 14.6477 29.6441 15.6641 29.3866 16.6804C29.2917 17.0598 29.6576 17.4528 30.037 17.3986C33.8584 17.3986 37.6661 17.3986 41.4875 17.3986C41.9075 17.385 42.2328 17.8593 42.0701 18.2523C41.7991 19.2686 41.5146 20.2713 41.2435 21.2876C41.1622 21.5993 40.837 21.7755 40.5254 21.7484C34.3597 21.7484 28.1806 21.7484 22.015 21.7484C21.6626 21.7755 21.351 21.396 21.4865 21.0573C23.2481 14.4445 25.0097 7.8317 26.7713 1.21891C26.8255 0.920791 27.0152 0.649776 27.2862 0.527818Z" fill="white"/>
<path d="M73.7655 1.0973C73.8333 0.704325 74.1991 0.406207 74.6056 0.433309C76.0691 0.433309 77.5326 0.433309 78.9825 0.433309C79.3213 0.406207 79.6465 0.595918 79.782 0.907587C81.6927 4.55275 83.6034 8.19791 85.5276 11.8295C85.5682 12.0328 85.8934 12.0057 85.907 11.8024C86.9504 8.0082 87.9803 4.21398 89.0101 0.419758C90.9343 0.419758 92.8585 0.419758 94.7963 0.419758C95.1486 0.365555 95.4603 0.744977 95.3248 1.0702C93.5632 7.72363 91.788 14.3635 90.0129 21.0034C89.9587 21.3964 89.6199 21.7487 89.1998 21.7352C87.7364 21.7352 86.2729 21.7352 84.7958 21.7352C84.4842 21.7487 84.2131 21.5454 84.0776 21.2744C82.1263 17.8325 80.1615 14.4042 78.1966 10.9623C78.1153 10.8268 78.0475 10.6371 77.8714 10.6235C77.6681 10.6506 77.6952 10.9081 77.6275 11.0571C76.7467 14.4584 75.8523 17.8732 74.9715 21.2744C74.9444 21.5183 74.7276 21.7487 74.4701 21.7352C72.5188 21.7352 70.5675 21.7216 68.6162 21.6945C68.3045 21.6945 68.1284 21.2609 68.3723 21.0576C70.6353 18.1577 71.7464 14.3771 71.4212 10.7048C71.3941 10.3389 71.3128 9.95952 71.4212 9.59364C72.2207 6.77508 72.9931 3.92941 73.7655 1.0973Z" fill="white"/>
<path d="M53.3029 7.50684C55.5117 7.50684 57.734 7.50684 59.9428 7.50684C60.6203 9.60721 61.2979 11.7076 61.989 13.7944C60.2138 15.1224 58.398 16.4097 56.6093 17.7241C54.8206 16.4233 53.0319 15.1224 51.2432 13.8215C51.9207 11.7211 52.6118 9.60721 53.3029 7.50684Z" fill="#D6161B"/>
<path d="M44.8069 10.0679L44.834 10.095C46.2839 11.5449 47.6661 13.0761 49.089 14.5532C48.8586 16.5858 48.6147 18.6184 48.3708 20.651C45.5115 18.0222 44.1565 13.8892 44.8069 10.0679Z" fill="#D6161B"/>
<path d="M64.5498 14.5667C65.8642 13.1168 67.2329 11.7075 68.5337 10.2305C69.1029 13.8756 67.8698 17.7918 65.2138 20.38C65.2273 19.8244 65.1325 19.2824 65.0647 18.7268C64.8886 17.3446 64.7124 15.9625 64.5498 14.5667Z" fill="#D6161B"/>
<path d="M51.2842 22.7109C53.1135 21.8301 54.9293 20.9493 56.7587 20.082C58.5609 20.9493 60.3632 21.7759 62.1654 22.6567C58.832 24.4183 54.6312 24.4589 51.2842 22.7109Z" fill="#D6161B"/>
</svg>
