<svg width="124" height="24" viewBox="0 0 124 24" fill="none" xmlns="http://www.w3.org/2000/svg">
<path d="M5.6044 0.52091L5.80121 0.411574C7.72552 0.389707 9.6717 0.411574 11.596 0.411574C12.0552 0.345973 12.4051 0.914519 12.1208 1.30813C10.7213 6.42505 9.38743 11.542 7.98793 16.6589C7.83486 16.965 8.09726 17.3586 8.42527 17.3586C12.1208 17.3586 15.8164 17.3586 19.5119 17.3586C19.9274 17.293 20.3429 17.8179 20.0805 18.1896C19.7743 19.2392 19.5119 20.2888 19.2277 21.3385C19.1621 21.6665 18.7903 21.8414 18.4842 21.7758C12.5144 21.7758 6.54469 21.7758 0.574952 21.7758C0.246944 21.7977 -0.102931 21.4697 0.0282721 21.1198C1.75578 14.6034 3.50515 8.08696 5.23266 1.5924C5.36386 1.24253 5.342 0.805184 5.6044 0.52091Z" fill="white"/>
<path d="M26.7934 1.26346C26.8371 0.804254 27.2526 0.432512 27.6899 0.410645C33.3098 0.410645 38.9515 0.410645 44.5714 0.410645C45.2493 0.410645 45.3805 1.28533 44.9869 1.72268C44.1778 2.6411 43.4999 3.66885 42.8876 4.71848L42.6908 4.82782C39.5201 4.82782 36.3493 4.82782 33.1786 4.82782C32.8506 4.76221 32.5007 4.95902 32.4133 5.28703C32.1727 6.24918 31.9103 7.18947 31.6698 8.15163C31.5823 8.47963 31.954 8.82951 32.2383 8.85138C35.0154 8.85138 37.8144 8.85138 40.5916 8.85138C41.0071 8.76391 41.4881 9.00445 41.5319 9.48552C41.2476 10.5789 40.9415 11.6504 40.6572 12.7437C40.5916 13.1155 40.1542 13.2685 39.8262 13.2248C36.7648 13.2248 33.6815 13.2029 30.6201 13.2467C30.5545 13.2904 30.4015 13.3997 30.314 13.4654C29.9204 14.6024 29.658 15.7833 29.3518 16.9204C29.4612 17.0516 29.658 17.314 29.7673 17.4452C33.6378 17.467 37.5302 17.4452 41.4007 17.4452C41.7505 17.3796 42.0567 17.6638 42.166 17.97C41.9036 19.0852 41.5756 20.1786 41.2695 21.2938C41.2039 21.6218 40.8758 21.8186 40.5478 21.7967C34.2938 21.7749 28.0179 21.8405 21.7639 21.7749C21.6765 21.6874 21.5015 21.4906 21.4141 21.4031C23.229 14.6462 25.0221 7.95482 26.7934 1.26346Z" fill="white"/>
<path d="M73.8521 1.04467C73.9177 0.672927 74.2895 0.388654 74.6612 0.410521C76.2356 0.432388 77.8101 0.366786 79.3845 0.432388C79.472 0.497989 79.6469 0.629193 79.7344 0.694794C81.7899 4.43408 83.6924 8.28271 85.7479 12.022L85.9665 11.8908C87.038 8.06403 88.0439 4.21541 89.1154 0.410521C91.1272 0.454255 93.1827 0.344919 95.1945 0.454255C95.2601 0.541724 95.4132 0.694794 95.4788 0.782263C93.7075 7.53922 91.8925 14.2962 90.0994 21.0531C90.0338 21.4905 89.6184 21.8185 89.181 21.7529C87.7159 21.731 86.2508 21.7529 84.7857 21.7529C84.3702 21.731 84.1734 21.2718 83.9985 20.9657C82.0086 17.5107 80.0843 14.0119 78.0506 10.5788L77.8101 10.7974C76.8261 14.4055 75.9951 18.0573 74.9236 21.6436L74.6612 21.7529C72.6494 21.731 70.6158 21.7529 68.604 21.7092C68.5384 21.6217 68.3853 21.4467 68.2979 21.3593C70.7907 18.1885 72.059 14.0119 71.4467 10.0102C72.2121 7.01441 73.043 4.04047 73.8521 1.04467Z" fill="white"/>
<path d="M121.894 0.519816C115.224 0.56355 108.555 0.432347 101.885 0.585417C100.486 0.869691 99.2832 2.00678 98.999 3.42815C98.1024 7.18931 97.1621 10.9505 96.2874 14.7335C96.0469 15.958 97.1184 17.1607 98.3648 17.117C104.794 17.1389 111.223 17.117 117.652 17.117C119.335 17.1607 120.932 15.8268 121.238 14.1868C122.134 10.4256 123.075 6.68636 123.928 2.90334C124.19 1.70064 123.118 0.476081 121.894 0.519816ZM110.064 7.10184C110.086 8.30453 109.08 9.22295 108.03 9.61656C108.336 10.6225 108.642 11.6065 108.949 12.6124C108.183 12.6124 107.396 12.6124 106.631 12.6124C106.39 11.6939 106.15 10.7974 105.909 9.87897C105.45 9.87897 104.991 9.8571 104.531 9.87897C104.313 10.7974 104.094 11.6939 103.875 12.6124C103.154 12.6124 102.432 12.6124 101.71 12.6124C102.301 10.0976 102.913 7.58291 103.525 5.06819C105.034 5.06819 106.565 5.02445 108.074 5.09006C109.102 5.15566 110.151 5.98661 110.064 7.10184ZM117.87 10.5131C117.499 11.7377 116.23 12.4156 115.028 12.5905C113.803 12.7654 112.447 12.7217 111.398 12.0001C110.742 11.5627 110.392 10.7318 110.589 9.96644C110.96 8.34827 111.376 6.75196 111.769 5.13379C112.447 4.95885 113.234 5.11192 113.956 5.06819C113.584 6.64263 113.169 8.1952 112.775 9.74777C112.666 10.1195 112.71 10.6006 113.081 10.8411C113.978 11.4097 115.443 11.0598 115.771 9.96644C116.208 8.34827 116.58 6.68636 116.996 5.06819C117.717 5.04632 118.461 5.06819 119.182 5.06819C118.745 6.90503 118.33 8.72001 117.87 10.5131Z" fill="white"/>
<path d="M107.484 6.70799C106.763 6.57675 106.041 6.66424 105.319 6.64237C105.188 7.18919 105.056 7.73601 104.903 8.28283C105.647 8.32658 106.456 8.3922 107.2 8.21722C107.878 8.10785 108.315 6.94859 107.484 6.70799Z" fill="white"/>
<path d="M55.1335 0.104469C56.3144 -0.0704688 57.5389 -0.00486723 58.7197 0.148203C59.7256 1.96318 60.6441 3.80002 61.6718 5.59313C63.5743 5.98674 65.5204 6.27101 67.4229 6.64276L67.4666 6.66462C68.0133 7.80172 68.4069 9.00441 68.5818 10.2727C67.2698 11.7159 65.9359 13.1592 64.602 14.5805C64.7988 16.5267 65.1706 18.451 65.258 20.3972C64.4052 21.3375 63.3337 22.081 62.2185 22.6714C60.4254 21.7967 58.6104 20.9658 56.7954 20.1129C55.0023 21.0314 53.1436 21.8404 51.3286 22.7589C50.279 22.2122 49.295 21.5124 48.4203 20.7034C48.639 18.6697 48.9014 16.6142 49.1201 14.5805C47.6987 13.0936 46.2992 11.5629 44.856 10.0978C45.009 8.93881 45.4026 7.82358 45.9056 6.75209C47.983 6.38035 50.0822 5.98674 52.1377 5.52753C53.1655 3.71255 54.1276 1.89758 55.1335 0.104469Z" fill="white"/>
<path d="M45.9282 6.73025C47.5901 3.1659 51.1982 0.519969 55.1124 0.104492C54.1284 1.8976 53.1444 3.71258 52.1385 5.50569C50.1049 5.9649 48.0056 6.35851 45.9282 6.73025Z" fill="#D6161B"/>
<path d="M58.7192 0.126465C62.4367 0.716879 65.8698 3.18787 67.4224 6.62102C65.5199 6.24928 63.5738 5.965 61.6713 5.57139C60.6436 3.80015 59.7251 1.94144 58.7192 0.126465Z" fill="#D6161B"/>
<path d="M53.3404 7.53923C55.5052 7.40803 57.7357 7.53923 59.9224 7.47363L60.0536 7.58297C60.7315 9.63848 61.3438 11.694 62.0873 13.7276C60.4035 15.149 58.4792 16.3736 56.7079 17.7293C54.9148 16.3954 53.0124 15.149 51.3286 13.7276C52.0284 11.694 52.6625 9.61662 53.3404 7.53923Z" fill="#D6161B"/>
<path d="M44.9001 10.0762C46.3433 11.5413 47.7428 13.072 49.1642 14.5589C48.9236 16.5926 48.6612 18.6262 48.4644 20.6818C45.5998 18.0358 44.1785 13.9029 44.9001 10.0762Z" fill="#D6161B"/>
<path d="M64.6235 14.5588C65.9574 13.1156 67.2913 11.6942 68.6034 10.251C69.1938 13.8809 67.9473 17.817 65.2796 20.3755C65.1702 18.4293 64.8203 16.505 64.6235 14.5588Z" fill="#D6161B"/>
<path d="M51.3286 22.7153C53.1436 21.8187 54.9804 20.9878 56.7954 20.0693C58.6104 20.9222 60.4254 21.7531 62.2185 22.6278C58.9165 24.4428 54.6743 24.4428 51.3286 22.7153Z" fill="#D6161B"/>
</svg>
