<svg width="14" height="24" viewBox="0 0 14 24" fill="none" xmlns="http://www.w3.org/2000/svg">
<circle cx="6.68405" cy="21.0796" r="2.48483" fill="#1FAD66"/>
<path d="M6.85567 17.4158C5.52463 17.4158 4.23368 17.2394 2.98282 16.8866C1.748 16.5178 0.753723 16.0447 0 15.4674L1.32302 12.5326C2.04467 13.0619 2.90263 13.4868 3.89691 13.8076C4.89118 14.1283 5.88545 14.2887 6.87973 14.2887C7.98625 14.2887 8.80412 14.1283 9.33333 13.8076C9.86254 13.4708 10.1271 13.0298 10.1271 12.4845C10.1271 12.0836 9.96678 11.7549 9.64605 11.4983C9.34135 11.2257 8.94044 11.0092 8.4433 10.8488C7.9622 10.6884 7.3047 10.512 6.47079 10.3196C5.18786 10.0149 4.13746 9.71019 3.31959 9.4055C2.50172 9.1008 1.79611 8.61168 1.20275 7.93814C0.62543 7.2646 0.33677 6.36655 0.33677 5.24399C0.33677 4.26575 0.601375 3.38373 1.13058 2.59794C1.65979 1.7961 2.45361 1.16266 3.51203 0.697594C4.58648 0.232531 5.89347 0 7.43299 0C8.50745 0 9.55785 0.128293 10.5842 0.384879C11.6105 0.641466 12.5086 1.01031 13.2784 1.49141L12.0756 4.45017C10.52 3.56816 8.96449 3.12715 7.40893 3.12715C6.31844 3.12715 5.50859 3.30355 4.97938 3.65636C4.46621 4.00916 4.20962 4.47422 4.20962 5.05154C4.20962 5.62886 4.5063 6.06185 5.09966 6.35051C5.70905 6.62314 6.63116 6.89576 7.86598 7.16838C9.14891 7.47308 10.1993 7.77778 11.0172 8.08247C11.8351 8.38717 12.5326 8.86827 13.11 9.52577C13.7033 10.1833 14 11.0733 14 12.1959C14 13.1581 13.7274 14.0401 13.1821 14.8419C12.6529 15.6277 11.8511 16.2531 10.7766 16.7182C9.70218 17.1833 8.39519 17.4158 6.85567 17.4158Z" fill="white"/>
</svg>
