<svg width="67" height="30" viewBox="0 0 67 30" fill="none" xmlns="http://www.w3.org/2000/svg">
<path d="M8.16299 21.5961C6.57813 21.5961 5.041 21.3861 3.55162 20.966C2.08132 20.5268 0.897451 19.9635 0 19.2761L1.57531 15.7818C2.43458 16.4119 3.45614 16.9179 4.64001 17.2998C5.82389 17.6817 7.00776 17.8726 8.19163 17.8726C9.50917 17.8726 10.483 17.6817 11.1131 17.2998C11.7432 16.8988 12.0583 16.3737 12.0583 15.7245C12.0583 15.2471 11.8674 14.8557 11.4855 14.5502C11.1227 14.2256 10.6453 13.9678 10.0534 13.7768C9.48052 13.5859 8.69764 13.3758 7.70472 13.1467C6.17714 12.7839 4.92644 12.4211 3.95261 12.0583C2.97877 11.6955 2.13861 11.1131 1.4321 10.3111C0.744694 9.50916 0.400989 8.43986 0.400989 7.10323C0.400989 5.93845 0.716052 4.88825 1.34618 3.9526C1.9763 2.99787 2.92149 2.24363 4.18174 1.68988C5.46109 1.13614 7.01731 0.859263 8.8504 0.859263C10.1297 0.859263 11.3804 1.01202 12.6025 1.31753C13.8246 1.62305 14.8939 2.06223 15.8104 2.63507L14.3783 6.15804C12.5261 5.10783 10.6739 4.58273 8.82175 4.58273C7.52331 4.58273 6.55903 4.79277 5.92891 5.21286C5.31788 5.63294 5.01236 6.18668 5.01236 6.87409C5.01236 7.5615 5.36561 8.07706 6.07212 8.42077C6.79772 8.74538 7.89566 9.06998 9.36595 9.39459C10.8935 9.75739 12.1442 10.1202 13.1181 10.483C14.0919 10.8458 14.9225 11.4186 15.6099 12.2015C16.3164 12.9844 16.6697 14.0442 16.6697 15.3808C16.6697 16.5265 16.3451 17.5767 15.6959 18.5314C15.0657 19.4671 14.111 20.2117 12.8316 20.7655C11.5523 21.3192 9.99608 21.5961 8.16299 21.5961Z" fill="white"/>
<path d="M18.7855 2.219L23.2537 0V21.2524H18.7855V2.219Z" fill="white"/>
<path d="M33.9932 21.4815C32.3701 21.4815 30.9094 21.1474 29.611 20.4791C28.3316 19.7917 27.3291 18.8465 26.6035 17.6435C25.8779 16.4405 25.5151 15.0753 25.5151 13.5477C25.5151 12.0201 25.8779 10.6548 26.6035 9.45188C27.3291 8.24891 28.3316 7.31327 29.611 6.64496C30.9094 5.95755 32.3701 5.61384 33.9932 5.61384C35.6162 5.61384 37.0674 5.95755 38.3468 6.64496C39.6261 7.31327 40.6286 8.24891 41.3542 9.45188C42.0798 10.6548 42.4426 12.0201 42.4426 13.5477C42.4426 15.0753 42.0798 16.4405 41.3542 17.6435C40.6286 18.8465 39.6261 19.7917 38.3468 20.4791C37.0674 21.1474 35.6162 21.4815 33.9932 21.4815ZM33.9932 17.8154C35.1389 17.8154 36.0745 17.4335 36.8001 16.6697C37.5448 15.8868 37.9171 14.8461 37.9171 13.5477C37.9171 12.2493 37.5448 11.2181 36.8001 10.4544C36.0745 9.67147 35.1389 9.28003 33.9932 9.28003C32.8475 9.28003 31.9023 9.67147 31.1576 10.4544C30.4129 11.2181 30.0406 12.2493 30.0406 13.5477C30.0406 14.8461 30.4129 15.8868 31.1576 16.6697C31.9023 17.4335 32.8475 17.8154 33.9932 17.8154Z" fill="white"/>
<path d="M54.6283 20.5077C54.1891 20.8323 53.6449 21.0806 52.9957 21.2524C52.3656 21.4052 51.6973 21.4815 50.9908 21.4815C49.1577 21.4815 47.7351 21.0137 46.7231 20.0781C45.7302 19.1424 45.2337 17.7676 45.2337 15.9536V9.62373H42.8564V6.18668H45.2337V3.17424L49.7019 2.43458V6.18668H54.2796V9.62373H49.7019V15.8963C49.7019 16.5456 49.8642 17.0516 50.1888 17.4144C50.5325 17.7581 51.0099 17.9299 51.6209 17.9299C52.3274 17.9299 52.9289 17.739 53.4254 17.3571L54.6283 20.5077Z" fill="white"/>
<path d="M66 20.5077C65.5608 20.8323 65.0166 21.0806 64.3674 21.2524C63.7373 21.4052 63.069 21.4815 62.3625 21.4815C60.5294 21.4815 59.1068 21.0137 58.0948 20.0781C57.1019 19.1424 56.6054 17.7676 56.6054 15.9536V9.62373H54.2281V6.18668H56.6054V3.17424L61.0736 2.43458V6.18668H64.9116V9.62373H61.0736V15.8963C61.0736 16.5456 61.2359 17.0516 61.5605 17.4144C61.9042 17.7581 62.3816 17.9299 62.9926 17.9299C63.6991 17.9299 64.3006 17.739 64.797 17.3571L66 20.5077Z" fill="white"/>
<circle cx="34.0788" cy="26.0602" r="2.95867" fill="#1FAD66"/>
</svg>
